<?xml version="1.0" encoding="UTF-8" standalone="no"?>
<svg
   version="1.0"
   width="700.000000pt"
   height="700.000000pt"
   viewBox="0 0 700.000000 700.000000"
   preserveAspectRatio="xMidYMid meet"
   id="svg3"
   sodipodi:docname="admb-micro.svg"
   inkscape:version="1.3.1 (9b9bdc1480, 2023-11-25, custom)"
   xmlns:inkscape="http://www.inkscape.org/namespaces/inkscape"
   xmlns:sodipodi="http://sodipodi.sourceforge.net/DTD/sodipodi-0.dtd"
   xmlns="http://www.w3.org/2000/svg"
   xmlns:svg="http://www.w3.org/2000/svg">
  <defs
     id="defs3" />
  <sodipodi:namedview
     id="namedview3"
     pagecolor="#ffffff"
     bordercolor="#000000"
     borderopacity="0.25"
     inkscape:showpageshadow="2"
     inkscape:pageopacity="0.0"
     inkscape:pagecheckerboard="0"
     inkscape:deskcolor="#d1d1d1"
     inkscape:document-units="pt"
     inkscape:zoom="1.6371429"
     inkscape:cx="466.66667"
     inkscape:cy="466.66667"
     inkscape:window-width="3200"
     inkscape:window-height="1731"
     inkscape:window-x="0"
     inkscape:window-y="0"
     inkscape:window-maximized="1"
     inkscape:current-layer="svg3" />
  <metadata
     id="metadata1">
Created by potrace 1.14, written by Peter Selinger 2001-2017
</metadata>
  <path
     d="m 365.04379,57.928053 c -44.90752,9.40371 -100.17831,47.594287 -111.30923,76.956897 -2.68677,7.29267 -2.87869,10.55518 -1.34339,16.69638 2.68678,10.17136 19.9589,27.6354 34.73616,34.73616 17.27212,8.25223 27.25157,8.06032 82.13853,-1.72722 23.22141,-4.22207 73.11865,1.34339 75.03778,8.44415 1.15147,4.79781 0.19191,103.82465 -1.34339,122.05633 -4.41399,53.15975 -15.353,96.72388 -44.52369,178.09477 -12.2824,33.77659 -12.2824,34.16041 -9.2118,41.26117 5.94929,14.39344 20.72655,25.33245 40.1097,29.74644 35.50381,8.06032 73.50248,-5.56546 115.14748,-41.64501 C 602.24759,472.65088 641.01391,391.28 640.05435,321.80769 639.86244,301.08114 638.32714,292.25317 631.6102,271.52662 608.77262,201.09475 533.35102,120.49151 448.52571,75.775912 412.63808,56.96849 391.14388,52.362591 365.04379,57.928053 Z"
     id="path1"
     style="fill:#D90012;stroke:none;stroke-width:0.191912" />
  <path
     d="m 189.37342,497.37596 c -2.49487,2.49486 -7.86842,8.63606 -11.89858,13.62579 -7.86841,9.59562 -12.09048,11.32283 -10.36327,4.41398 2.49486,-9.59562 -1.34339,-9.40371 -17.84786,1.5353 -15.16108,9.97945 -16.69638,10.55519 -24.56479,9.40371 l -8.44415,-1.34338 -13.24196,14.20152 c -14.969179,15.92873 -16.504479,21.11037 -8.82798,32.43321 4.413986,6.14119 4.413986,6.71693 1.535299,11.89857 -2.878687,4.79781 -2.878687,5.75737 0.383825,11.70666 1.919122,3.45442 5.757376,7.86841 8.636066,9.40371 2.87869,1.72721 7.6765,5.37355 10.36327,7.86841 2.87869,2.68677 7.6765,5.18164 10.55519,5.56546 5.18163,0.57574 5.37355,0.95956 4.79781,10.17136 -0.57574,10.17136 4.6059,22.06994 9.78753,22.06994 1.34339,0 4.6059,-4.79782 6.90885,-10.55519 2.49487,-5.94929 8.82798,-15.54491 14.20153,-21.4942 8.25223,-9.01988 9.97944,-11.89857 9.97944,-18.03977 0,-4.6059 -1.72721,-9.40371 -4.6059,-13.24196 -2.68677,-3.83825 -4.03016,-7.48458 -3.26251,-10.17136 1.91913,-7.6765 21.30229,-27.05966 32.81703,-33.00894 10.36328,-5.37355 17.08021,-12.09049 12.47431,-12.66622 -0.95956,-0.19192 -3.0706,-0.38383 -4.22207,-0.57574 -3.64634,-0.57574 -9.01989,2.30295 -18.03977,9.78753 -7.48459,5.94929 -8.06032,6.1412 -10.93901,2.87869 -3.0706,-3.26251 -3.83825,-6.52502 -3.45443,-12.2824 0,-1.91912 6.33312,-9.97944 14.00961,-17.84786 12.2824,-13.05004 13.43388,-14.77726 10.7471,-17.46403 -2.68677,-2.68677 -3.45442,-2.49486 -7.48458,1.72721 z"
     id="path2"
     style="fill:#D90012;stroke:none;stroke-width:0.191912" />
</svg>
