<?xml version="1.0" standalone="no"?>
<!DOCTYPE svg PUBLIC "-//W3C//DTD SVG 20010904//EN"
 "http://www.w3.org/TR/2001/REC-SVG-20010904/DTD/svg10.dtd">
<svg version="1.0" xmlns="http://www.w3.org/2000/svg"
 width="700.000000pt" height="700.000000pt" viewBox="0 0 700.000000 700.000000"
 preserveAspectRatio="xMidYMid meet">
<metadata>
Created by potrace 1.14, written by Peter Selinger 2001-2017
</metadata>
<g transform="translate(0.000000,700.000000) scale(0.100000,-0.100000)"
fill="#000000" stroke="none">
<path d="M4750 6765 c-234 -49 -522 -248 -580 -401 -14 -38 -15 -55 -7 -87 14
-53 104 -144 181 -181 90 -43 142 -42 428 9 121 22 381 -7 391 -44 6 -25 1
-541 -7 -636 -23 -277 -80 -504 -232 -928 -64 -176 -64 -178 -48 -215 31 -75
108 -132 209 -155 185 -42 383 29 600 217 301 260 503 684 498 1046 -1 108 -9
154 -44 262 -119 367 -512 787 -954 1020 -187 98 -299 122 -435 93z"/>
<path d="M3099 3817 c-13 -13 -41 -45 -62 -71 -41 -50 -63 -59 -54 -23 13 50
-7 49 -93 -8 -79 -52 -87 -55 -128 -49 l-44 7 -69 -74 c-78 -83 -86 -110 -46
-169 23 -32 23 -35 8 -62 -15 -25 -15 -30 2 -61 10 -18 30 -41 45 -49 15 -9
40 -28 54 -41 15 -14 40 -27 55 -29 27 -3 28 -5 25 -53 -3 -53 24 -115 51
-115 7 0 24 25 36 55 13 31 46 81 74 112 43 47 52 62 52 94 0 24 -9 49 -24 69
-14 20 -21 39 -17 53 10 40 111 141 171 172 54 28 89 63 65 66 -5 1 -16 2 -22
3 -19 3 -47 -12 -94 -51 -39 -31 -42 -32 -57 -15 -16 17 -20 34 -18 64 0 10
33 52 73 93 64 68 70 77 56 91 -14 14 -18 13 -39 -9z"/>
<path d="M5200 3440 c-4 -3 -11 -23 -15 -45 -5 -22 -9 -44 -10 -50 -2 -5 -13
-57 -25 -115 -12 -58 -23 -112 -25 -120 -2 -8 -20 -94 -40 -190 -20 -96 -39
-184 -41 -195 -3 -11 -7 -31 -10 -45 -3 -14 -22 -106 -44 -205 -51 -236 -191
-894 -196 -923 -5 -23 -50 -238 -59 -278 -4 -19 -11 -20 -124 -20 -116 0 -120
1 -116 21 5 20 103 484 111 520 40 191 47 275 28 356 -31 131 -116 223 -251
268 -48 16 -80 20 -150 17 -153 -5 -260 -59 -374 -185 l-63 -71 -28 59 c-91
190 -359 258 -552 140 -64 -38 -119 -88 -153 -140 -14 -22 -30 -39 -34 -39
-12 0 -12 -4 12 106 11 53 18 99 14 102 -4 4 -51 7 -105 7 -98 1 -99 1 -105
-25 -3 -14 -10 -42 -16 -62 l-9 -37 -186 1 -186 0 5 37 c3 20 17 95 31 166 52
276 18 442 -119 580 -133 133 -314 189 -610 189 -205 -1 -363 -33 -506 -105
-71 -35 -182 -119 -231 -172 -42 -47 -50 -28 71 -170 l75 -87 30 29 c95 90
129 116 211 156 122 60 219 79 384 73 141 -6 207 -24 285 -78 79 -54 116 -131
116 -241 0 -56 -53 -355 -65 -367 -2 -2 -178 -6 -392 -7 -477 -4 -517 -9 -670
-80 -264 -122 -407 -344 -412 -640 -3 -176 33 -279 134 -381 136 -138 366
-198 645 -170 181 18 289 61 427 168 35 26 65 48 67 48 2 0 0 -16 -6 -36 -12
-46 -17 -69 -24 -119 l-6 -40 153 0 154 0 12 55 c7 30 14 66 17 80 2 14 41
210 86 435 45 226 83 417 85 425 2 13 32 15 189 18 l187 2 -5 -32 c-3 -18 -33
-158 -66 -312 -33 -153 -62 -289 -64 -302 -3 -13 -7 -32 -10 -42 -3 -9 -7 -33
-10 -52 -3 -19 -19 -92 -34 -163 l-29 -127 113 0 c99 0 113 2 118 18 5 18 13
59 22 107 3 17 12 59 20 95 8 36 28 130 45 210 17 80 32 152 34 160 2 8 13 62
25 120 28 136 26 127 40 185 14 57 60 148 93 185 37 41 100 88 148 107 61 25
191 25 239 -1 69 -36 117 -106 127 -184 8 -67 6 -75 -108 -610 -43 -205 -79
-377 -79 -383 0 -5 47 -9 109 -9 119 0 115 -2 126 62 3 13 28 131 56 263 28
132 68 321 89 421 43 205 73 276 148 352 57 58 81 74 151 97 101 33 225 5 284
-64 44 -52 60 -112 54 -193 -3 -40 -8 -84 -11 -98 -3 -14 -13 -59 -21 -100 -8
-41 -22 -105 -30 -141 -13 -62 -17 -79 -31 -146 -3 -16 -25 -121 -50 -235 -24
-114 -44 -210 -44 -213 0 -9 720 -3 726 6 3 5 14 50 25 101 11 51 23 102 25
113 3 11 7 31 10 45 9 49 15 59 30 53 7 -3 14 -11 14 -18 0 -17 71 -124 107
-161 200 -205 557 -222 832 -39 206 136 355 363 425 646 29 119 37 181 40 314
10 417 -282 721 -664 692 -179 -14 -305 -73 -430 -200 -36 -36 -68 -63 -71
-59 -4 4 10 90 32 192 21 102 42 200 45 219 3 18 7 41 9 50 51 235 93 447 89
450 -6 6 -254 7 -264 1z m720 -926 c172 -68 252 -224 244 -477 -9 -329 -151
-605 -371 -720 -80 -41 -135 -58 -213 -62 -223 -12 -389 111 -447 330 -3 11
-7 72 -8 135 -9 289 101 550 296 703 54 43 159 94 220 107 67 14 227 5 279
-16z m-3840 -466 c0 -7 -5 -33 -11 -58 -13 -57 -15 -65 -24 -120 -37 -239
-148 -417 -313 -503 -215 -112 -536 -108 -689 9 -60 45 -77 94 -77 214 1 137
30 213 114 304 82 87 162 127 300 150 109 19 700 22 700 4z"/>
</g>
</svg>
