<?xml version="1.0" encoding="UTF-8"?>
<svg id="Calque_1" data-name="Calque 1" xmlns="http://www.w3.org/2000/svg" viewBox="0 0 928.3 1330.82">
  <defs>
    <style>
      .cls-1 {
        fill: none;
      }

      .cls-2 {
        fill: #6abfe4;
      }

      .cls-3 {
        fill: #bc537a;
      }

      .cls-4 {
        fill: #c9d6e9;
      }

      .cls-5 {
        fill: #d31e33;
      }

      .cls-6 {
        fill: #d3194a;
      }

      .cls-7 {
        fill: #abdaf0;
      }

      .cls-8 {
        fill: #d3d2e6;
      }

      .cls-9 {
        fill: #1d1d1b;
      }

      .cls-10 {
        fill: #1697ce;
      }

      .cls-11 {
        fill: #6c849e;
      }
    </style>
  </defs>
  <g>
    <path class="cls-9" d="M483.06,1257.76c4.66-12.33-3.9-21.47-15.04-23.76-26.83-5.49-33.96-25.76-38.53-48.01-1.41-6.84-2.87-16.56-9.5-14.37-32.1,10.54-23.94-15.09-26.27-29.07-1.52-9.21,1.66-19.05-11.99-20.26-12.49-1.1-18.67,3.81-21.99,16.83-5.13,20.22-8.7,43.53-21.34,58.44-14.77,17.46-14.66,29.95-1.88,44.54,14.46,16.54,22.68,45.44,54.94,31.9,13-18.38,40.28-6.99,53.57-25.28,.2-.25,5.83,3.47,8.92,5.33-4.35,4.24-8.72,8.5-13.07,12.75,4.82,7.73,9.41,14.73,9.89,25.1,1.86,42.54,11.3,47.36,53.62,28.15-18.56-16.99-31.43-35.48-21.32-62.29Z"/>
    <path class="cls-11" d="M445.02,1248.71c-13.29,18.29-40.57,6.9-53.57,25.28,17.71,6.01,33.56-.56,49.43-7.2,4.35-4.26,8.72-8.52,13.07-12.75-3.09-1.86-8.72-5.58-8.92-5.33Z"/>
  </g>
  <g>
    <path class="cls-1" d="M654.71,63.33c-.05,.36-.12,.72-.19,1.11,.39-.35,.77-.72,1.15-1.11h-.97Z"/>
    <path class="cls-4" d="M519.65,94.05c-75.11-32.05-152.02-58.39-232.78-72.27,0,0,.01,0,.02,0-.01,0-.02,0-.03,0C173.42,33.03,112.42,112.94,55.6,198.32c-10.27,21.32-19.5,43.19-30.98,63.84C7.22,293.5,.08,325.71,0,358.3v.73c.02,25.3,4.27,50.83,11.26,76.36,12.98,47.36,77.78,61.4,110.39,26.27,127.7-137.58,269.92-255.65,445.03-329.28,0,0,0-.01,0-.02-8.48-21.58-31.76-25.06-47.04-38.3Zm-168.2,111.04c-21.47,9.57-42.95,19.14-64.42,28.69-24.37,10.8-42.97,24.28-49.38,54.18-4.8,22.44-19.93,42.86-31.52,63.57-6.95,12.4-15.96,23.67-26.65,34.81,14.28-45.01,16.5-90.36,9.53-136.15-2.06-13.61,3.25-17.21,16.32-20.33,40.62-9.71,80.61-21.88,120.86-33.08,.03,0,.06,0,.08,0-.03,0-.06-.01-.08-.02,40.08-15.13,80.16-30.26,120.26-45.41-29.01,23.09-59.65,42.72-95,53.75Z"/>
    <path class="cls-2" d="M910.3,255.06s0,.05,0,.07c-22.57-54.29-56.8-98.74-108.49-128.46,0,0-.01,0-.02,0,0,0,.01,0,.02,0-33.96,6.7-66.3,.65-103.67-7.98,21.25-16.21,43.19,.81,57.2-16.41,0,0,0,0,0,0,0,0,0,0,0,0l-.27-.34s0,0,0,0h-112.85c-.27-1.91-.54-3.79-.83-5.69,11.66-4.33,23.33-8.65,42.66-15.85-27.44-1.3-47.25-2.22-68.84-3.25,11.32-12.59,26.89-1.59,39.3-12.72,.07-.38,.13-.75,.19-1.11h-62.74c7.49-15.35,23.65-3.3,29.27-14.37-97.21,2.47-188.94-39.74-286.42-35.17,.01,0,.02,0,.03,0-.01,0-.03,0-.04,0-16.45-.09-32.69,.94-47.93,7.99,0,0-.01,0-.02,0,80.76,13.88,157.67,40.21,232.78,72.27-4.42-33.02,7.42-39.23,36.83-24.9,38.29,18.67,70.11,45.93,102.86,72.06,8.23,6.57,14.53,15.6,26.02,16.5,14.1,1.12,27.06,.45,17.1,22.42-3.18,7.04,13.09,10.42,20.44,15.56,4.37,3.07,38.08-.25,3.95,14.01,1.48,3.09,2.13,7.26,4.57,9.1,37.59,28.49,31.67,73.34,41.83,112.01,.81,3.07-5.66,8.04-8.78,12.14,3.16,6.99,4.35,17.18,9.74,20.41,47.81,28.71,104.1,10.02,126.24-42.36,4.17-9.86,10.24-17.8,15.29-26.72-.89-3.06-1.25-6.09-1.26-9.11-1.39-10.01-2.79-20.02-4.18-30.01,0-.03,0-.05-.01-.08Z"/>
    <path class="cls-7" d="M773.26,330.8c-10.15-38.67-4.24-83.52-41.83-112.01-2.44-1.84-3.09-6.01-4.57-9.1,34.14-14.26,.43-10.94-3.95-14.01-7.35-5.13-23.63-8.52-20.44-15.56,9.95-21.97-3-21.29-17.1-22.42-11.5-.9-17.8-9.93-26.02-16.5-32.75-26.14-64.58-53.39-102.86-72.06-29.41-14.32-41.24-8.11-36.83,24.9,15.28,13.24,38.56,16.72,47.04,38.3,0,0,0,.02,.01,.03,24.81,9.59,43.71,27.32,63.95,43.89,56.53,46.29,93.18,107.95,133.82,166.68,0,0,0,0,0,0,3.12-4.1,9.59-9.07,8.78-12.14Z"/>
    <path class="cls-8" d="M710.45,23.13c21.16,16.25,15.19,41.4,20.63,62.82,10.51-16.88,17.59-34.36,3.13-57.22,29.72,9.82,49.07,23.04,56.15,47.5,3.86,13.38,13.4,17.89,22.82,24.84,52.25,38.65,93.6,84.5,97.12,154.01,0,.03,0,.05,.01,.08,1.39,9.99,2.79,20,4.18,30.01,.42,3.04,.85,6.07,1.27,9.11,8.7-23.1,11.64-47.21,12.55-71.68v-.2c-16.94-115.3-111.78-202.07-217.86-199.25Z"/>
    <path class="cls-8" d="M731.08,85.97s.01,0,.02,0c0,0-.01,0-.02-.01,0,0,0,0,0,.01Z"/>
    <path class="cls-10" d="M621.24,48.96c-5.63,11.07-21.79-.99-29.27,14.37h63.7c-.38,.39-.77,.76-1.15,1.11-12.42,11.14-27.98,.14-39.3,12.72,21.59,1.03,41.4,1.95,68.84,3.25-19.32,7.2-31,11.52-42.66,15.85,.29,1.91,.56,3.79,.83,5.69h112.85c-7.99-5.33-15.98-10.65-23.97-15.98,0,0-.01,0-.02,0,0,0,0,0,0-.01,0,0,0,0,0,0,0,0,0,0,0,0-5.44-21.42,.53-46.57-20.63-62.82,0,0,0,0-.01-.01-22.12-12.08-46.24-14.64-70.9-15.78-29.14-1.37-58.19-4.17-87.33-5.74-72.88-3.94-145.41-.83-217.35,12.19-.01,0-.02,0-.03,0,97.48-4.57,189.21,37.64,286.42,35.17Z"/>
    <path class="cls-6" d="M326.28,196.77s-.06,0-.08,0c-40.26,11.21-80.25,23.38-120.86,33.08-13.07,3.12-18.38,6.72-16.32,20.33,6.97,45.79,4.75,91.14-9.53,136.15,10.69-11.14,19.7-22.42,26.65-34.81,11.59-20.71,26.72-41.13,31.52-63.57,6.41-29.9,25.02-43.37,49.38-54.18,21.47-9.55,42.95-19.12,64.42-28.69-6.14-9.56-16.5-6.41-25.18-8.32Z"/>
    <path class="cls-3" d="M326.28,196.77c8.68,1.91,19.03-1.24,25.18,8.32,35.35-11.03,65.99-30.66,95-53.75-40.1,15.15-80.18,30.28-120.26,45.41,.03,0,.06,.01,.08,.02Z"/>
    <path class="cls-5" d="M731.08,85.95s.01,0,.02,.01c7.99,5.33,15.98,10.65,23.97,15.98,0,0,0,0,0,0l.27,.34s0,0,0,0c15.48,8.13,30.94,16.24,46.44,24.37,0,0,.01,0,.02,0,51.69,29.72,85.92,74.17,108.49,128.46,0-.03,0-.05,0-.07-3.52-69.51-44.87-115.36-97.12-154.01-9.41-6.95-18.96-11.45-22.82-24.84-7.08-24.45-26.43-37.68-56.15-47.5,14.46,22.86,7.38,40.34-3.13,57.22,0,0,0,0,0,0,0,0,0,0,0,0Z"/>
    <path class="cls-10" d="M755.34,102.29c-14.01,17.21-35.95,.2-57.2,16.41,37.37,8.63,69.71,14.68,103.67,7.98,0,0-.01,0-.02,0-15.5-8.13-30.96-16.24-46.44-24.37,0,0,0,0,0,0Z"/>
  </g>
</svg>