<?xml version="1.0" encoding="utf-8"?>
<!-- Generator: Adobe Illustrator 28.0.0, SVG Export Plug-In . SVG Version: 6.00 Build 0)  -->
<svg version="1.1" id="Calque_1" xmlns="http://www.w3.org/2000/svg" xmlns:xlink="http://www.w3.org/1999/xlink" x="0px" y="0px"
	 viewBox="0 0 1810 1810" style="enable-background:new 0 0 1810 1810;" xml:space="preserve">
<style type="text/css">
	.st0{fill:#FFFFFF;}
	.st1{fill:none;}
	.st2{fill:#8363AA;}
	.st3{fill:#FFF200;}
	.st4{fill:#00A79D;}
	.st5{fill:#A3DAD4;}
</style>
<path class="st0" d="M1373.625,1091.687l-3.471-749.048l-8.412,5.96l3.181,686.552l-95.58-621.063l-7.696,5.445l97.177,631.475
	l-183.754-570.123l-7.218,5.118l179.654,557.385l-240.252-514.455l-7.004,4.967l247.759,530.5L980.603,693.472l-4.527,7.419
	l340.183,343.439L946.161,749.945l-4.439,7.255l374.474,297.869L915.68,799.917l-4.401,7.205l399.912,254.775L885.375,849.586
	l-4.414,7.23l481.811,240.264C1368.57,1099.734,1373.625,1097.873,1373.625,1091.687"/>
<rect x="40.074" y="280.59" class="st1" width="1729.63" height="1238.928"/>
<g>
	<polygon class="st2" points="41.757,375.237 366.46,397.243 321.531,270.214 	"/>
	<polygon class="st3" points="355.149,275.168 691.157,382.983 482.958,634.414 	"/>
	<polygon class="st4" points="501.542,660.44 968.151,93.913 1033.677,554.02 853.822,847.727 	"/>
	<polygon class="st5" points="996.499,73 1061.56,528.455 1636.436,122.733 	"/>
</g>
<g>
	<path class="st0" d="M1245.914,1279.175c-9.829,24.546-63.263,64.539-76.519,21.424c-6.814-22.049,11.17-73.584,39.156-69.838
		c14.238,1.899,14.053-20.428,0-22.301c-25.117-3.36-44.031,16.656-54.019,41.454c-2.085,0.704-4.051,2.045-5.618,4.184
		c-8.859,11.927-16.722,24.599-25.21,36.779c-6.336,9.112-13.149,17.254-20.787,25.25c-14.265,14.903-4.928-25.25-3.932-30.948
		c6.243-36.088,28.836-100.361,8.421-135.24c-15.66-26.711-45.372,0.863-57.486,15.155c-0.186,0.199-0.372,0.452-0.558,0.664
		c7.053-21.385,13.11-46.581,2.497-63.768c-18.887-30.549-64.897,28.53-91.581,65.229c-0.093-18.569-3.626-36.5-16.789-45.385
		c-11.981-8.062-23.111,11.263-11.277,19.259c18.024,12.153-0.651,95.765-2.949,112.793c-3.852,28.53-10.52,57.512-11.529,86.348
		c-0.491,14.398,21.809,14.345,22.314,0c1.488-42.503,12.047-85.219,16.47-127.563c0.12-1.262,0.319-2.829,0.491-4.21
		c0.199-0.213,0.452-0.266,0.651-0.491c11.529-12.751,21.105-27.322,31.346-41.069c10.918-14.717,53.235-74.275,42.251-22.832
		c-13.269,62.241-39.169,119.78-47.338,183.588c-0.066,0.226-0.133,0.465-0.159,0.677c0,0,0.027,0.013,0.053,0.013
		c-0.12,0.996-0.372,1.966-0.465,2.962c-1.461,12.631,19.007,14.982,21.916,2.949c6.801-28.318,14.385-56.184,24.121-83.678
		c2.285-6.469,53.435-102.619,60.328-85.206c16.762,42.317-15.54,108.436-17.201,154.048c-0.651,17.519,16.257,33.378,33.245,22.381
		c17.254-11.197,29.606-27.786,41.095-44.96c0.558,6.375,1.806,12.313,3.998,17.386c25.555,59.85,100.56,10.931,116.565-29.141
		C1272.784,1271.737,1251.187,1265.986,1245.914,1279.175"/>
	<path class="st0" d="M1639.396,1501.318c-19.193,43.128-45.093,78.511-81.181,108.264c-9.55,7.903-39.103,35.623-33.418,10.427
		c8.713-38.691,46.661-71.857,71.684-100.905c20.07-23.324,41.295-45.757,63.078-67.766
		C1653.063,1469.427,1646.01,1486.416,1639.396,1501.318 M1489.12,1261.095c3.878-58.389,30.522-113.125,69.506-156.146
		c30.27-33.418,27.308,6.575,16.576,29.699c-11.024,23.762-25.037,45.784-39.05,67.899c-14.451,22.832-30.363,44.735-47.245,65.867
		C1488.907,1265.943,1488.934,1263.459,1489.12,1261.095 M1383.021,1505.861c-5.525,19.963-11.834,39.555-19.923,58.655
		c-4.795,11.343-11.037,22.142-18.622,31.877c-24.068,30.948-27.933-17.891-28.344-23.855c-2.497-37.576-0.996-75.682,3.188-113.709
		c23.961-13.667,46.408-32.608,67.102-50.991c1.674,2.776,3.241,5.791,4.609,9.284
		C1401.643,1444.337,1390.406,1479.177,1383.021,1505.861 M1272.34,1453.821c-14.039,1.82,25.821-39.369,29.473-42.556
		c1.156-0.996,2.364-1.992,3.613-2.988c-1.78,11.755-3.307,23.523-4.675,35.318
		C1291.732,1448.574,1282.209,1452.519,1272.34,1453.821 M1370.403,1392.297c-15.261,12.977-31.054,25.329-47.338,36.872
		c1.713-11.728,3.679-23.43,5.804-35.092C1342.789,1388.114,1357.825,1386.002,1370.403,1392.297 M1456.857,1021.589
		c16.005-27.494,33.803-54.537,56.675-76.772c8.7-8.487,22.872-19.817,34.614-9.736c22.088,19.02-11.144,66.969-22.102,84.688
		c-30.27,49.011-67.447,91.329-106.763,133.168c-11.263,11.994-24.094,27.428-38.332,41.573
		C1400.806,1134.515,1424.953,1076.445,1456.857,1021.589 M1729.808,1351.813c-10.081,9.643-20.256,19.366-30.456,29.101
		c6.522-34.521,9.789-71.95-1.408-103.535c-2.75-7.744-12.392-11.224-18.635-4.928c-12.074,12.14-24.121,23.842-37.735,34.321
		c-14.345,13.057-46.74,25.157-48.865-7.053c1.687-10.466,8.926-20.003,15.142-28.198c7.704-10.108-9.178-22.859-17.519-13.495
		c-15.7,17.572-31.399,34.308-50.486,48.321c-25.157,18.449-39.329,8.859-46.01-8.461c18.914-23.151,36.792-47.125,53.488-71.684
		c19.047-28.079,77.343-101.995,61.643-141.23c-13.043-32.581-37.735-22.062-59.518-2.524
		c-41.441,37.217-67.155,93.507-78.897,146.889c-3.839,17.586-7.398,43.234-3.467,65.468c-14.597,16.961-29.766,33.418-45.346,49.45
		c-10.48,10.798-21.438,21.198-32.608,31.412h-0.027c-18.476-10.652-37.204-10.984-55.493-5.964
		c9.085-43.924,20.627-87.211,32.887-128.984c0.85-2.909,1.753-5.778,2.63-8.687c8.169-6.163,15.912-13.017,23.403-19.711
		c38.04-34.109,72.84-74.633,105.328-113.802c28.092-33.856,123.366-147.526,55.799-186.656
		c-42.809-24.811-90.532,57.486-107.108,83.705c-41.162,65.03-68.125,135.758-92.099,208.691c-1.74,5.393-3.453,10.838-5.18,16.271
		c-9.829,6.097-20.149,10.427-30.948,11.954c-5.751-6.787-19.884-4.489-19.884,6.96v4.808c0,6.097,5.087,11.131,11.144,11.157
		c11.104,0.067,21.371-2.391,31.054-6.429c-12.392,42.729-22.66,86.082-30.403,129.887c-4.556,2.245-9.045,4.689-13.481,7.292
		c-18.104,10.639-49.835,39.076-52.399,61.338c-3.746,32.369,32.674,30.257,53.302,22.035c0.133-0.027,0.252-0.106,0.345-0.159
		c-2.909,31.466-4.436,63.051-4.396,94.689c0.027,18.303,0.81,54.989,23.151,62.267c29.779,9.696,48.6-18.077,61.045-40.936
		c21.783-40.112,62.081-146.716,27.773-194.678c24.878-22.234,48.281-46.289,70.29-71.578c3.679,5.844,8.487,10.812,14.69,14.464
		c27.162,15.899,56.051-0.877,79.906-22.394c1.302,11.768,7.73,22.314,22.115,29.261c30.469,14.703,64.95-14.889,88.699-38.346
		c5.937,31.692,1.474,68.138-7.611,103.482c-54.178,52.505-107.387,107.228-150.462,168.233
		c-12.578,17.798-42.942,101.716,11.648,77.17c48.958-21.995,84.289-66.637,110.256-111.757
		c21.185-36.792,35.238-77.622,45.439-118.717c18.263-17.825,36.699-35.424,55.055-52.93
		C1756.027,1357.644,1740.195,1341.891,1729.808,1351.813"/>
	<path class="st0" d="M1780.538,1327.744c-0.279-0.027-0.571-0.066-0.863-0.093c-2.603-2.603-5.193-5.193-7.783-7.783
		c-0.027-0.292-0.08-0.571-0.106-0.85c0.385,14.345,22.699,14.385,22.314,0c-0.239-8.248-5.326-13.349-13.561-13.574
		C1766.153,1305.045,1766.18,1327.359,1780.538,1327.744"/>
</g>
</svg>
