<?xml version="1.0" encoding="utf-8"?>
<!-- Generator: Adobe Illustrator 28.0.0, SVG Export Plug-In . SVG Version: 6.00 Build 0)  -->
<svg version="1.1" id="Calque_1" xmlns="http://www.w3.org/2000/svg" xmlns:xlink="http://www.w3.org/1999/xlink" x="0px" y="0px"
	 viewBox="0 0 1810 1810" style="enable-background:new 0 0 1810 1810;" xml:space="preserve">
<style type="text/css">
	.st0{fill:#FFFFFF;}
	.st1{fill:none;}
	.st2{fill:#8363AA;}
	.st3{fill:#FFF200;}
	.st4{fill:#00A79D;}
	.st5{fill:#A3DAD4;}
</style>
<path class="st0" d="M1373.625,1091.687l-3.471-749.048l-8.412,5.96l3.181,686.552l-95.58-621.063l-7.696,5.445l97.177,631.475
	l-183.754-570.123l-7.218,5.118l179.654,557.385l-240.252-514.455l-7.004,4.967l247.759,530.5L980.603,693.472l-4.527,7.419
	l340.183,343.439L946.161,749.945l-4.439,7.255l374.474,297.869L915.68,799.917l-4.401,7.205l399.912,254.775L885.375,849.586
	l-4.414,7.23l481.811,240.264C1368.57,1099.734,1373.625,1097.873,1373.625,1091.687"/>
<rect x="40.074" y="280.59" class="st1" width="1729.63" height="1238.928"/>
<g>
	<polygon class="st2" points="41.757,375.237 366.46,397.243 321.531,270.214 	"/>
	<polygon class="st3" points="355.149,275.168 691.157,382.983 482.958,634.414 	"/>
	<polygon class="st4" points="501.542,660.44 968.151,93.913 1033.677,554.02 853.822,847.727 	"/>
	<polygon class="st5" points="996.499,73 1061.56,528.455 1636.436,122.733 	"/>
</g>
<g>
	<path class="st0" d="M1317.321,1226.407c-9.305,23.238-59.893,61.1-72.443,20.283c-6.451-20.874,10.575-69.664,37.07-66.118
		c13.48,1.798,13.304-19.34,0-21.113c-23.779-3.181-41.685,15.769-51.141,39.245c-1.974,0.667-3.835,1.937-5.319,3.961
		c-8.387,11.292-15.832,23.288-23.867,34.819c-5.998,8.626-12.449,16.334-19.679,23.904c-13.505,14.109-4.665-23.904-3.722-29.299
		c5.91-34.165,27.3-95.014,7.972-128.035c-14.826-25.288-42.955,0.817-54.423,14.348c-0.176,0.189-0.352,0.428-0.528,0.629
		c6.677-20.245,12.411-44.099,2.364-60.371c-17.881-28.922-61.44,27.01-86.702,61.754c-0.088-17.579-3.433-34.555-15.894-42.968
		c-11.342-7.633-21.88,10.663-10.676,18.233c17.064,11.506-0.616,90.663-2.792,106.784c-3.647,27.01-9.959,54.448-10.915,81.748
		c-0.465,13.631,20.648,13.581,21.125,0c1.408-40.239,11.405-80.679,15.593-120.767c0.113-1.195,0.302-2.678,0.465-3.986
		c0.189-0.201,0.427-0.252,0.616-0.465c10.915-12.072,19.981-25.866,29.676-38.881c10.336-13.933,50.399-70.318,40-21.616
		c-12.562,58.925-37.083,113.398-44.816,173.807c-0.063,0.214-0.126,0.44-0.151,0.641c0,0,0.025,0.013,0.05,0.013
		c-0.113,0.943-0.352,1.861-0.44,2.804c-1.383,11.958,17.994,14.184,20.748,2.792c6.438-26.809,13.618-53.191,22.836-79.22
		c2.163-6.124,50.588-97.152,57.114-80.667c15.869,40.063-14.712,102.66-16.284,145.841c-0.616,16.586,15.391,31.6,31.474,21.188
		c16.334-10.6,28.029-26.306,38.906-42.565c0.528,6.036,1.71,11.657,3.785,16.46c24.194,56.661,95.203,10.349,110.355-27.589
		C1342.759,1219.366,1322.313,1213.921,1317.321,1226.407"/>
	<path class="st0" d="M1689.84,1436.716c-18.171,40.83-42.691,74.329-76.856,102.496c-9.041,7.482-37.02,33.725-31.638,9.871
		c8.249-36.63,44.175-68.029,67.865-95.53c19-22.081,39.095-43.32,59.717-64.156
		C1702.78,1406.524,1696.103,1422.607,1689.84,1436.716 M1547.571,1209.291c3.672-55.278,28.896-107.098,65.803-147.828
		c28.657-31.638,25.854,6.224,15.693,28.117c-10.437,22.496-23.703,43.345-36.969,64.282
		c-13.681,21.616-28.746,42.351-44.728,62.358C1547.369,1213.88,1547.395,1211.529,1547.571,1209.291 M1447.124,1441.017
		c-5.231,18.9-11.204,37.447-18.862,55.53c-4.539,10.739-10.449,20.962-17.63,30.179c-22.785,29.299-26.445-16.938-26.834-22.584
		c-2.364-35.574-0.943-71.65,3.018-107.652c22.685-12.939,43.936-30.871,63.527-48.274c1.584,2.628,3.068,5.483,4.363,8.79
		C1464.754,1382.771,1454.116,1415.754,1447.124,1441.017 M1342.34,1391.749c-13.292,1.723,24.445-37.271,27.903-40.289
		c1.094-0.943,2.238-1.886,3.42-2.829c-1.685,11.129-3.131,22.27-4.426,33.436
		C1360.698,1386.782,1351.682,1390.517,1342.34,1391.749 M1435.178,1333.503c-14.448,12.285-29.4,23.98-44.816,34.907
		c1.622-11.103,3.483-22.182,5.495-33.222C1409.036,1329.542,1423.27,1327.543,1435.178,1333.503 M1517.027,982.544
		c15.152-26.03,32.002-51.632,53.656-72.682c8.236-8.035,21.654-18.761,32.77-9.217c20.912,18.007-10.55,63.401-20.924,80.176
		c-28.658,46.401-63.854,86.463-101.075,126.074c-10.663,11.355-22.81,25.967-36.29,39.359
		C1463.962,1089.454,1486.822,1034.478,1517.027,982.544 M1775.436,1295.176c-9.544,9.129-19.177,18.334-28.834,27.551
		c6.174-32.682,9.268-68.117-1.333-98.02c-2.603-7.331-11.732-10.626-17.642-4.665c-11.431,11.493-22.836,22.572-35.725,32.493
		c-13.581,12.361-44.25,23.817-46.262-6.677c1.597-9.909,8.45-18.937,14.335-26.696c7.293-9.569-8.689-21.641-16.586-12.776
		c-14.863,16.636-29.727,32.48-47.796,45.747c-23.816,17.466-37.234,8.387-43.559-8.01c17.906-21.918,34.832-44.615,50.638-67.865
		c18.032-26.583,73.223-96.561,58.359-133.707c-12.348-30.846-35.725-20.886-56.347-2.389
		c-39.233,35.234-63.578,88.526-74.694,139.063c-3.634,16.649-7.004,40.931-3.282,61.981c-13.82,16.058-28.18,31.638-42.93,46.816
		c-9.921,10.223-20.296,20.069-30.871,29.739h-0.025c-17.491-10.085-35.222-10.399-52.537-5.646
		c8.601-41.584,19.529-82.565,31.135-122.113c0.805-2.754,1.66-5.47,2.49-8.224c7.734-5.835,15.065-12.323,22.157-18.661
		c36.014-32.292,68.959-70.657,99.717-107.74c26.595-32.053,116.794-139.667,52.826-176.712
		c-40.528-23.49-85.709,54.423-101.402,79.246c-38.969,61.566-64.495,128.526-87.193,197.573
		c-1.647,5.105-3.269,10.261-4.904,15.404c-9.305,5.772-19.076,9.871-29.299,11.317c-5.445-6.426-18.824-4.25-18.824,6.589v4.552
		c0,5.772,4.816,10.538,10.55,10.563c10.512,0.063,20.233-2.263,29.4-6.086c-11.732,40.453-21.453,81.496-28.783,122.968
		c-4.313,2.125-8.563,4.439-12.763,6.903c-17.139,10.072-47.18,36.995-49.607,58.07c-3.546,30.645,30.934,28.645,50.462,20.861
		c0.126-0.025,0.239-0.101,0.327-0.151c-2.754,29.789-4.2,59.692-4.162,89.645c0.025,17.328,0.767,52.059,21.918,58.95
		c28.193,9.18,46.011-17.114,57.793-38.755c20.623-37.976,58.774-138.9,26.294-184.307c23.552-21.05,45.709-43.823,66.545-67.765
		c3.483,5.533,8.035,10.236,13.908,13.694c25.715,15.052,53.065-0.83,75.649-21.201c1.232,11.141,7.318,21.125,20.937,27.702
		c28.846,13.92,61.49-14.096,83.974-36.303c5.621,30.003,1.396,64.508-7.205,97.969c-51.292,49.708-101.666,101.515-142.446,159.271
		c-11.908,16.85-40.654,96.297,11.028,73.059c46.35-20.824,79.799-63.087,104.382-105.803
		c20.057-34.832,33.361-73.486,43.018-112.392c17.29-16.875,34.744-33.537,52.122-50.11
		C1800.259,1300.696,1785.27,1285.782,1775.436,1295.176"/>
</g>
</svg>
