<?xml version="1.0" standalone="no"?>
<!DOCTYPE svg PUBLIC "-//W3C//DTD SVG 20010904//EN"
 "http://www.w3.org/TR/2001/REC-SVG-20010904/DTD/svg10.dtd">
<svg version="1.0" xmlns="http://www.w3.org/2000/svg"
 width="300.000000pt" height="300.000000pt" viewBox="0 0 300.000000 300.000000"
 preserveAspectRatio="xMidYMid meet">
<metadata>
Created by potrace 1.14, written by Peter Selinger 2001-2017
</metadata>
<g transform="translate(0.000000,300.000000) scale(0.100000,-0.100000)"
fill="#000000" stroke="none">
<path d="M150 2987 c-49 -16 -123 -93 -138 -143 -7 -23 -12 -97 -12 -170 0
-115 3 -135 24 -180 48 -103 116 -132 306 -130 151 2 186 13 246 78 51 55 59
88 59 243 0 127 -2 145 -24 188 -25 52 -71 92 -128 113 -47 16 -282 17 -333 1z
m320 -95 c61 -30 76 -72 75 -214 -2 -199 -26 -222 -230 -223 -121 0 -132 2
-164 24 -50 36 -61 73 -61 203 0 129 13 168 69 205 31 21 46 23 155 23 95 0
128 -4 156 -18z"/>
<path d="M261 2803 c-98 -51 -105 -183 -14 -236 120 -69 253 58 189 181 -32
62 -113 87 -175 55z"/>
<path d="M922 2988 c-17 -17 -15 -53 3 -68 14 -11 13 -14 -2 -25 -14 -10 -20
-10 -31 1 -17 18 -32 18 -60 -2 -12 -8 -22 -10 -22 -5 0 17 -49 25 -65 11 -18
-15 -20 -51 -3 -68 17 -17 55 -15 66 3 7 14 10 13 26 -3 15 -17 15 -20 1 -25
-20 -8 -19 -51 1 -68 14 -11 14 -13 0 -21 -21 -12 -20 -47 0 -70 16 -16 16
-18 0 -24 -20 -8 -21 -48 -1 -68 14 -13 14 -16 -2 -25 -13 -6 -24 -5 -37 4
-18 14 -45 10 -58 -9 -13 -19 -9 -56 7 -62 13 -5 13 -8 0 -21 -8 -8 -15 -25
-15 -39 0 -14 7 -27 15 -30 13 -5 13 -8 0 -21 -40 -39 11 -108 52 -70 15 13
21 13 36 3 15 -12 15 -15 2 -26 -22 -18 -19 -57 5 -70 22 -12 60 -5 60 11 0 5
11 2 25 -7 14 -9 32 -13 44 -9 26 8 38 50 21 70 -15 18 -51 20 -68 3 -8 -8
-15 -8 -27 2 -14 12 -14 15 0 30 8 9 15 23 15 31 0 36 -56 53 -80 24 -11 -13
-14 -13 -26 2 -10 15 -10 21 2 34 19 21 18 45 -4 61 -17 13 -17 14 0 31 10 9
18 13 18 9 0 -5 12 -14 26 -21 22 -10 30 -9 45 5 15 13 20 14 32 2 13 -11 13
-15 0 -30 -31 -35 9 -88 53 -71 22 8 29 51 10 71 -14 17 -14 19 1 34 19 20 11
65 -15 70 -21 5 -62 -12 -62 -26 0 -5 -6 -1 -14 10 -13 16 -13 21 0 35 18 20
18 38 -1 59 -14 15 -14 18 0 30 8 7 15 19 15 28 0 8 -7 23 -15 32 -14 15 -14
18 0 30 12 10 19 10 27 2 7 -7 21 -12 33 -12 12 0 26 5 33 12 8 8 15 8 26 -1
14 -11 14 -15 1 -28 -19 -19 -19 -47 0 -63 13 -11 13 -14 0 -27 -21 -21 -18
-49 7 -67 20 -14 24 -14 46 0 18 12 26 13 38 3 13 -10 13 -14 -1 -29 -19 -21
-19 -44 0 -60 14 -12 14 -15 0 -30 -8 -9 -15 -24 -15 -33 0 -22 43 -49 64 -41
24 9 31 51 13 72 -13 15 -13 19 -1 30 19 17 18 59 -2 70 -14 8 -14 10 0 21 11
9 20 10 29 4 25 -20 47 -22 62 -7 12 13 19 13 30 4 12 -10 12 -15 -2 -36 -14
-21 -14 -27 0 -47 13 -20 13 -25 -1 -45 -13 -19 -13 -25 0 -44 13 -19 13 -25
-1 -50 -15 -25 -15 -29 0 -44 16 -15 16 -18 0 -45 -15 -26 -15 -30 0 -45 16
-15 16 -18 1 -44 -15 -27 -15 -30 2 -49 23 -25 49 -27 66 -6 12 14 15 14 31
-1 23 -21 51 -15 66 16 10 20 9 27 -4 42 -11 12 -13 22 -6 30 19 25 22 48 7
63 -20 19 -61 19 -72 0 -7 -14 -10 -13 -26 3 -15 17 -15 20 -1 25 21 9 20 63
-2 72 -17 6 -17 7 0 16 21 12 23 67 3 75 -12 5 -12 8 2 22 16 16 18 16 34 0
33 -33 84 4 68 48 -11 29 -47 37 -68 16 -16 -16 -18 -16 -34 0 -14 14 -14 17
-2 22 22 8 18 63 -6 76 -21 11 -60 -2 -60 -20 0 -6 -8 -2 -18 8 -16 14 -17 19
-5 33 18 21 17 56 -2 67 -14 7 -13 10 3 26 17 15 20 15 25 1 8 -20 51 -19 68
1 11 14 13 14 21 0 9 -17 45 -21 64 -8 20 13 23 40 7 62 -10 14 -12 24 -5 29
16 10 18 46 3 64 -18 22 -44 21 -64 -1 -21 -23 -21 -36 -1 -57 12 -12 13 -19
4 -29 -9 -12 -15 -12 -40 2 -26 15 -30 15 -47 0 -15 -14 -21 -14 -36 -4 -15
12 -15 15 -2 26 18 15 20 51 3 68 -8 8 -8 15 1 26 11 14 15 14 28 1 29 -30 73
-11 73 30 0 41 -44 60 -73 30 -13 -13 -16 -13 -27 0 -16 19 -45 19 -64 -1 -20
-20 -20 -38 0 -58 12 -13 13 -18 2 -30 -11 -11 -16 -11 -35 1 -23 15 -63 10
-63 -8 0 -6 -10 -3 -22 5 -28 20 -43 20 -60 2 -11 -11 -17 -11 -31 -1 -15 11
-16 14 -2 25 21 18 19 57 -4 70 -26 13 -44 13 -59 -2z m0 -187 c-13 -12 -18
-13 -20 -4 -2 7 -8 13 -13 13 -5 0 -4 9 3 20 11 17 14 18 29 4 16 -15 16 -17
1 -33z m276 2 c-7 -9 -14 -9 -28 0 -18 10 -18 13 -3 29 15 17 17 17 29 0 8
-11 9 -21 2 -29z m-181 26 c9 -9 8 -15 -3 -26 -12 -13 -16 -13 -28 0 -11 11
-12 17 -3 26 14 14 20 14 34 0z m90 0 c9 -9 8 -15 -3 -26 -12 -13 -16 -13 -28
0 -11 11 -12 17 -3 26 14 14 20 14 34 0z m85 -122 c-15 -17 -15 -21 0 -47 15
-26 15 -30 1 -41 -9 -8 -17 -9 -21 -3 -14 21 -45 25 -63 8 -16 -15 -20 -15
-33 -1 -14 13 -14 16 -1 27 8 7 15 21 15 31 0 9 -7 24 -15 32 -13 13 -13 17 1
28 11 9 18 9 26 1 17 -17 53 -15 68 3 11 13 14 13 26 -2 10 -15 10 -21 -4 -36z
m187 -540 c-12 -13 -16 -13 -31 0 -17 15 -17 17 0 29 14 10 19 10 31 -1 11
-11 11 -15 0 -28z"/>
<path d="M1652 2988 c-7 -7 -12 -21 -12 -33 0 -41 44 -60 73 -30 13 13 17 13
28 -1 9 -11 9 -18 1 -26 -15 -15 -15 -51 0 -66 17 -17 55 -15 66 4 8 14 10 14
21 0 19 -23 58 -20 71 4 24 45 -20 85 -63 57 -31 -20 -50 -1 -30 30 8 12 12
31 8 42 -8 28 -51 38 -73 18 -15 -13 -19 -13 -30 -1 -16 17 -44 18 -60 2z"/>
<path d="M2106 2984 c-19 -18 -20 -28 -6 -55 13 -23 52 -25 70 -4 11 13 14 13
27 0 13 -13 13 -17 -1 -31 -19 -18 -20 -28 -6 -55 12 -21 50 -25 68 -7 17 17
15 55 -4 66 -14 8 -14 10 0 21 9 8 16 23 16 35 0 42 -44 61 -73 31 -13 -13
-16 -13 -27 0 -16 19 -45 19 -64 -1z"/>
<path d="M2491 2974 c-100 -50 -133 -130 -130 -307 2 -125 13 -166 56 -217 60
-69 99 -83 243 -86 69 -2 144 2 168 8 63 16 116 59 146 119 24 49 26 63 26
182 0 159 -11 198 -70 257 -59 59 -98 70 -257 70 -119 0 -133 -2 -182 -26z
m339 -82 c19 -9 45 -32 57 -51 21 -31 23 -46 23 -153 0 -135 -11 -173 -60
-208 -30 -21 -45 -24 -157 -25 -142 -2 -184 11 -218 67 -16 28 -19 53 -20 163
0 121 2 132 24 164 36 50 70 60 201 61 90 0 123 -4 150 -18z"/>
<path d="M2634 2810 c-87 -27 -115 -151 -48 -221 46 -48 102 -56 165 -23 83
43 88 168 9 226 -31 23 -85 30 -126 18z"/>
<path d="M2016 2894 c-30 -30 -13 -74 29 -74 44 0 63 60 26 80 -27 14 -37 13
-55 -6z"/>
<path d="M1557 2799 c-17 -23 -11 -58 10 -66 11 -4 10 -8 -4 -18 -14 -10 -21
-10 -39 2 -40 26 -86 -16 -64 -58 13 -23 68 -26 76 -5 5 12 8 12 23 -2 12 -13
14 -20 5 -27 -21 -19 -24 -45 -6 -63 16 -16 16 -18 0 -34 -29 -29 3 -81 43
-71 31 8 43 40 26 67 -13 19 -13 25 -1 41 18 25 18 31 -6 55 -11 11 -16 20
-10 20 5 0 14 9 20 21 9 16 8 26 -5 45 -14 22 -14 26 0 40 19 19 19 24 -1 52
-19 28 -48 28 -67 1z"/>
<path d="M1928 2809 c-36 -21 -16 -79 27 -79 42 0 59 44 29 74 -18 18 -32 20
-56 5z"/>
<path d="M1926 2624 c-30 -30 -13 -74 29 -74 12 0 26 5 33 12 8 8 15 8 26 -1
14 -11 14 -15 1 -28 -19 -19 -19 -47 0 -63 14 -12 14 -15 0 -30 -19 -21 -19
-44 0 -63 13 -13 13 -17 -1 -28 -11 -9 -18 -9 -26 -1 -17 17 -53 15 -68 -3
-11 -13 -14 -13 -26 2 -10 15 -10 21 3 35 19 21 14 47 -12 64 -42 28 -86 -33
-50 -69 13 -13 13 -16 0 -27 -20 -16 -19 -57 1 -68 14 -8 14 -10 0 -21 -20
-17 -21 -60 -1 -68 14 -5 14 -8 -1 -25 -16 -16 -19 -17 -26 -3 -12 20 -52 19
-69 -1 -11 -14 -13 -14 -21 0 -11 20 -52 21 -68 1 -11 -13 -14 -13 -27 1 -14
13 -14 17 1 33 25 28 6 71 -32 71 -38 0 -58 -38 -36 -69 13 -18 13 -23 0 -44
-14 -21 -14 -25 0 -45 12 -18 13 -26 4 -37 -10 -13 -14 -12 -27 0 -40 40 -99
-8 -67 -54 18 -24 46 -27 67 -6 13 12 17 12 27 0 9 -10 8 -19 -4 -37 -14 -22
-14 -26 0 -46 18 -26 46 -28 68 -6 20 20 20 38 0 59 -13 12 -14 18 -4 31 11
13 15 13 30 -1 9 -8 24 -15 33 -15 19 0 47 26 47 45 0 7 -7 21 -16 29 -14 14
-14 18 -1 31 13 13 16 13 27 0 16 -19 45 -19 62 -1 11 12 15 12 30 -1 22 -20
65 -10 73 18 4 11 0 30 -8 42 -20 32 -1 50 32 29 21 -15 26 -14 52 1 16 9 29
12 29 7 0 -17 41 -22 63 -7 30 19 51 0 31 -28 -18 -24 -18 -40 0 -57 11 -11
11 -17 1 -31 -11 -15 -14 -16 -25 -2 -15 18 -51 20 -68 3 -9 -9 -15 -9 -24 0
-28 28 -78 7 -78 -33 0 -12 5 -26 12 -33 9 -9 9 -15 0 -24 -28 -28 -7 -78 34
-78 34 0 50 26 36 62 -6 16 -8 36 -5 44 4 12 8 12 26 -1 27 -19 51 -19 67 0
11 13 14 13 27 0 29 -30 73 -11 73 31 0 12 -7 27 -16 35 -14 11 -14 13 0 21
20 11 21 52 1 68 -13 11 -13 14 2 26 15 10 21 10 36 -3 14 -13 22 -14 42 -5
29 13 34 52 9 73 -14 11 -14 13 0 21 9 5 16 19 16 32 0 13 -7 29 -16 37 -14
11 -14 13 0 21 21 12 20 52 0 72 -8 9 -11 16 -5 16 13 0 24 36 16 59 -8 27
-34 34 -60 17 -20 -13 -25 -13 -44 0 -16 11 -25 12 -41 4 -11 -6 -20 -16 -20
-22 0 -6 -8 -3 -19 8 -16 16 -17 21 -5 35 8 8 14 22 14 31 0 16 -30 48 -45 48
-5 0 -17 -7 -27 -17 -17 -15 -19 -15 -36 0 -23 21 -36 21 -56 1z m268 -185
c-18 -20 -18 -43 0 -58 12 -10 12 -16 -2 -41 -15 -26 -15 -30 0 -47 14 -15 14
-21 4 -36 -12 -15 -15 -15 -26 -2 -16 20 -59 19 -67 0 -5 -14 -8 -14 -24 1
-16 14 -16 18 -4 31 19 19 19 47 0 63 -13 11 -13 14 0 27 8 8 15 23 15 32 0
10 -7 24 -15 31 -13 10 -13 14 0 27 13 12 17 12 36 -1 23 -16 49 -11 62 11 7
12 11 11 22 -4 11 -15 11 -21 -1 -34z m-271 -181 c-15 -17 -17 -17 -29 0 -18
24 1 46 26 29 18 -10 18 -13 3 -29z m92 28 c12 -12 12 -16 0 -26 -21 -18 -50
5 -32 25 15 18 16 18 32 1z m-364 -210 c-12 -14 -15 -14 -28 0 -12 12 -13 17
-2 30 11 13 14 13 27 0 12 -12 13 -18 3 -30z"/>
<path d="M1461 2428 c-9 -24 2 -58 19 -58 6 0 1 -9 -10 -20 -11 -11 -20 -24
-20 -30 0 -15 38 -50 53 -50 21 0 45 32 41 55 -1 11 -11 25 -20 32 -10 7 -13
13 -6 13 20 0 34 38 22 60 -16 29 -68 27 -79 -2z"/>
<path d="M1647 2443 c-13 -12 -7 -64 8 -69 13 -5 13 -8 0 -21 -24 -23 -19 -62
10 -75 22 -10 29 -9 48 10 21 22 21 24 6 51 -15 26 -15 30 -1 45 24 24 1 66
-36 66 -16 0 -32 -3 -35 -7z"/>
<path d="M1010 2345 c-7 -8 -10 -25 -6 -39 11 -45 71 -45 82 0 8 30 -11 54
-41 54 -12 0 -28 -7 -35 -15z"/>
<path d="M370 2249 c-9 -16 -8 -26 5 -45 18 -27 32 -30 61 -10 17 12 22 12 38
0 17 -12 17 -14 3 -19 -24 -10 -29 -35 -12 -61 19 -30 49 -31 69 -2 20 28 20
33 0 53 -13 12 -14 18 -4 31 11 13 15 13 30 -1 21 -19 39 -19 59 -1 13 12 19
12 34 2 15 -12 15 -15 2 -26 -18 -15 -20 -51 -3 -68 17 -17 43 -15 58 3 12 14
15 14 31 -1 23 -21 65 -12 74 16 15 46 -45 82 -75 45 -11 -13 -14 -13 -26 2
-10 15 -10 21 3 36 13 14 14 22 5 42 -13 29 -52 34 -73 9 -11 -14 -13 -14 -21
0 -12 21 -64 21 -72 0 -5 -14 -7 -14 -22 0 -19 20 -49 21 -66 3 -10 -12 -15
-12 -26 0 -20 20 -60 16 -72 -8z"/>
<path d="M1102 2258 c-16 -16 -15 -43 2 -60 11 -11 11 -17 1 -31 -11 -15 -14
-16 -25 -2 -16 19 -54 19 -70 0 -14 -17 -5 -65 12 -65 6 0 3 -9 -7 -20 -38
-42 18 -105 61 -70 18 16 18 49 -1 70 -13 14 -12 17 5 28 11 7 20 8 20 3 0
-16 38 -23 60 -11 24 13 27 52 4 71 -14 11 -14 13 0 21 19 11 21 49 4 66 -7 7
-21 12 -33 12 -12 0 -26 -5 -33 -12z"/>
<path d="M2370 2249 c-9 -16 -8 -26 5 -45 18 -28 41 -31 65 -9 15 14 19 14 30
1 10 -13 9 -19 -4 -31 -20 -20 -20 -25 0 -54 10 -14 13 -26 7 -30 -20 -13 -23
-44 -7 -62 21 -23 42 -24 64 -4 15 14 18 14 30 0 10 -12 10 -19 2 -27 -15 -15
-15 -51 -2 -64 7 -7 6 -20 -5 -40 -13 -26 -13 -30 4 -48 39 -38 97 3 68 48
-12 18 -12 24 1 44 13 19 13 25 -2 47 -15 23 -15 27 -1 41 19 20 19 38 -1 58
-19 20 -48 21 -63 2 -11 -13 -15 -12 -31 2 -19 15 -19 16 0 29 20 14 20 51 -1
64 -8 5 -7 13 4 30 21 33 6 69 -27 69 -14 0 -31 -6 -38 -13 -10 -12 -15 -12
-26 0 -20 20 -60 16 -72 -8z"/>
<path d="M2832 2258 c-17 -17 -15 -58 3 -65 14 -5 14 -8 -1 -25 -16 -16 -19
-17 -26 -3 -12 20 -52 19 -69 -1 -11 -14 -13 -14 -21 0 -11 19 -49 21 -66 4
-7 -7 -12 -21 -12 -33 0 -41 44 -60 73 -30 13 13 16 13 27 0 16 -19 44 -19 62
-1 11 11 17 11 31 1 15 -11 16 -14 2 -25 -36 -30 -6 -88 39 -76 32 8 42 40 22
71 -9 14 -12 25 -7 25 19 0 23 41 7 65 -9 14 -12 25 -6 25 16 0 24 49 10 65
-15 18 -51 20 -68 3z"/>
<path d="M10 2165 c-17 -20 -5 -62 21 -70 11 -4 30 0 42 8 31 20 50 1 30 -30
-8 -12 -12 -31 -8 -42 8 -28 51 -38 73 -18 15 13 19 13 30 1 11 -12 10 -17 -2
-30 -20 -20 -20 -38 0 -58 13 -14 13 -18 2 -30 -12 -11 -17 -11 -33 0 -10 8
-24 14 -31 14 -7 0 -19 -6 -26 -14 -11 -11 -17 -11 -31 -1 -15 11 -16 14 -2
25 19 16 19 54 1 70 -43 35 -99 -28 -61 -70 10 -11 13 -20 7 -20 -21 0 -26
-49 -7 -70 10 -11 13 -20 7 -20 -17 0 -26 -48 -12 -65 15 -18 51 -20 68 -3 17
17 15 55 -3 66 -14 7 -13 10 3 26 17 15 20 15 25 1 8 -20 51 -19 68 1 11 14
13 14 21 0 11 -19 49 -21 66 -4 17 17 15 55 -4 66 -14 8 -14 10 0 21 19 16 21
52 4 69 -9 9 -9 15 0 24 15 15 15 51 0 66 -8 8 -8 15 2 27 12 14 15 14 30 0
20 -18 42 -19 58 -3 15 15 15 51 0 66 -17 17 -55 15 -66 -4 -8 -14 -10 -14
-21 0 -17 21 -57 21 -69 0 -8 -14 -10 -14 -21 0 -8 9 -24 16 -37 16 -13 0 -27
-7 -32 -16 -8 -14 -10 -14 -21 0 -17 20 -55 21 -71 1z m186 -87 c-9 -16 -12
-16 -28 -1 -17 15 -17 17 -1 28 23 17 45 -2 29 -27z"/>
<path d="M376 2074 c-20 -20 -20 -38 0 -59 15 -15 15 -17 -1 -35 -15 -17 -16
-22 -2 -49 13 -26 13 -32 1 -42 -18 -15 -18 -34 1 -53 14 -14 14 -18 0 -40
-13 -19 -14 -29 -5 -45 12 -24 52 -28 72 -8 11 11 16 10 32 -5 11 -10 14 -18
8 -18 -20 0 -34 -38 -22 -60 13 -25 65 -27 78 -4 8 15 10 15 15 0 8 -20 63
-21 74 -1 7 13 11 12 25 -4 14 -17 15 -20 2 -25 -10 -4 -14 -17 -12 -38 3 -29
7 -33 35 -36 41 -4 62 28 40 61 -12 18 -12 25 2 48 14 25 14 29 -1 46 -14 15
-14 21 -4 36 12 15 15 15 26 2 20 -24 59 -19 72 10 10 22 9 29 -10 48 -22 21
-24 21 -51 6 -39 -23 -55 -7 -33 31 15 27 15 30 -2 49 -16 18 -17 22 -3 35 13
14 16 14 27 1 18 -22 57 -18 70 5 26 48 -30 91 -70 55 -11 -10 -20 -13 -20 -7
0 17 -48 26 -65 12 -18 -15 -20 -51 -3 -68 8 -8 8 -15 -2 -27 -12 -14 -15 -14
-31 1 -23 21 -51 15 -66 -16 -10 -20 -9 -27 4 -42 20 -22 59 -23 71 -3 7 14
10 13 26 -3 15 -17 15 -20 1 -25 -19 -8 -20 -52 -1 -69 11 -11 11 -15 -2 -24
-13 -9 -21 -8 -38 3 -17 11 -27 12 -43 3 -12 -6 -21 -15 -21 -20 0 -6 -8 -2
-19 8 -14 13 -15 20 -6 27 20 18 24 42 9 64 -18 25 -41 27 -64 6 -15 -14 -19
-14 -29 -1 -10 12 -9 20 3 38 14 22 14 26 0 46 -12 18 -13 26 -4 37 10 13 14
12 27 0 30 -31 76 -12 76 30 0 15 -7 31 -14 36 -23 14 -56 10 -63 -8 -6 -15
-8 -15 -23 0 -13 13 -14 20 -5 29 7 7 12 21 12 33 0 42 -44 59 -74 29z"/>
<path d="M562 2078 c-15 -15 -15 -51 0 -66 18 -18 52 -14 65 8 28 43 -29 94
-65 58z"/>
<path d="M922 1988 c-28 -28 -7 -78 33 -78 27 0 45 18 45 47 0 35 -53 56 -78
31z"/>
<path d="M1377 1982 c-21 -23 -21 -31 -1 -54 14 -14 14 -20 4 -33 -12 -14 -15
-14 -31 1 -19 17 -69 13 -69 -6 0 -6 -11 -3 -25 6 -45 29 -90 -9 -65 -56 12
-23 52 -27 69 -6 11 13 15 12 29 -2 16 -16 16 -18 -2 -33 -18 -14 -19 -20 -8
-43 6 -14 17 -26 24 -26 6 0 3 -6 -7 -14 -16 -11 -22 -11 -46 3 -25 14 -29 14
-46 -1 -15 -14 -21 -14 -36 -4 -15 12 -15 15 -2 26 37 30 1 90 -45 75 -28 -9
-37 -51 -16 -74 23 -25 0 -46 -28 -25 -25 18 -41 18 -60 -2 -13 -12 -18 -13
-30 -2 -12 11 -12 15 1 30 20 22 10 64 -17 73 -46 15 -82 -44 -45 -75 13 -11
13 -14 0 -27 -30 -29 -11 -73 30 -73 12 0 26 5 33 12 8 8 15 8 27 -2 14 -12
14 -15 0 -30 -19 -21 -19 -44 0 -60 13 -11 13 -14 0 -27 -21 -21 -18 -49 6
-67 21 -15 48 -11 61 8 4 6 12 5 22 -4 15 -12 15 -15 1 -30 -20 -22 -19 -43 4
-64 14 -13 24 -14 45 -7 30 12 36 50 11 71 -13 10 -13 14 0 27 13 12 17 12 36
-1 23 -16 47 -11 66 13 8 10 12 12 13 4 0 -21 37 -35 60 -23 25 13 27 65 4 78
-15 8 -15 10 0 15 20 8 21 63 1 74 -13 7 -12 11 4 25 17 14 20 15 25 2 4 -10
17 -14 38 -12 29 3 33 7 36 35 3 27 -1 35 -22 45 -21 9 -29 8 -45 -6 -16 -15
-19 -15 -31 -1 -10 12 -10 19 -2 27 17 17 15 58 -3 65 -14 5 -14 8 1 24 14 16
18 16 31 4 19 -20 42 -19 65 1 16 16 18 16 24 0 8 -20 48 -21 68 0 20 19 20
24 0 52 -18 26 -41 28 -64 7 -15 -14 -19 -14 -29 -1 -10 12 -9 20 3 38 14 22
14 26 0 46 -18 27 -45 28 -67 4z m-183 -363 c-18 -20 -18 -43 1 -59 11 -9 12
-16 2 -30 -11 -19 -12 -19 -30 1 -19 20 -54 18 -69 -4 -4 -7 -12 -6 -22 3 -15
12 -15 15 -1 30 19 21 19 44 0 63 -13 13 -13 17 1 28 11 9 18 9 26 1 17 -17
53 -15 68 3 11 13 14 13 26 -2 10 -15 10 -21 -2 -34z m93 0 c-9 -15 -11 -15
-26 0 -14 14 -14 18 -2 33 14 16 15 16 27 0 8 -11 9 -21 1 -33z m0 -90 c-9
-15 -11 -15 -26 0 -14 14 -14 18 -2 33 14 16 15 16 27 0 8 -11 9 -21 1 -33z"/>
<path d="M1742 1988 c-15 -15 -15 -51 0 -66 8 -8 8 -15 -1 -26 -11 -14 -15
-14 -28 -1 -29 30 -73 11 -73 -30 0 -12 5 -26 12 -33 17 -17 55 -15 66 4 8 14
10 14 21 0 17 -20 60 -21 68 -1 5 14 8 14 25 -1 16 -16 17 -19 3 -26 -18 -11
-20 -49 -3 -66 17 -17 55 -15 66 4 8 14 10 14 21 0 16 -19 52 -21 69 -4 9 9
15 9 24 0 15 -15 51 -15 66 0 8 8 15 8 27 -2 14 -12 14 -15 0 -30 -8 -9 -15
-24 -15 -32 0 -9 7 -21 15 -28 14 -12 14 -15 0 -30 -8 -9 -15 -23 -15 -30 0
-7 7 -21 15 -30 14 -15 14 -18 0 -30 -8 -7 -15 -20 -15 -30 0 -10 7 -23 15
-30 14 -12 14 -15 0 -30 -19 -21 -19 -39 0 -60 14 -15 14 -18 0 -30 -12 -10
-19 -10 -27 -2 -15 15 -51 15 -66 0 -17 -17 -15 -49 6 -64 23 -18 37 -17 56 2
15 14 17 14 32 0 19 -20 35 -20 60 -2 17 13 21 12 37 -2 17 -15 21 -15 47 0
38 22 54 6 31 -33 -15 -27 -15 -29 7 -51 22 -22 24 -22 52 -6 38 21 58 4 34
-31 -14 -20 -14 -24 0 -46 19 -29 47 -32 69 -7 14 16 15 21 2 46 -12 23 -13
31 -1 49 16 24 5 67 -16 67 -6 0 -4 6 6 13 12 9 17 23 14 42 -2 25 -8 31 -33
33 -19 3 -33 -2 -42 -14 -11 -16 -13 -16 -19 -1 -8 21 -60 23 -71 2 -7 -13
-11 -12 -25 4 -14 16 -14 20 -2 25 15 6 19 44 6 62 -13 19 -39 23 -61 7 -17
-11 -25 -12 -36 -3 -13 10 -12 14 0 27 8 8 15 23 15 33 0 10 -7 25 -15 33 -12
13 -13 17 0 27 11 9 19 8 36 -3 34 -24 69 -4 69 40 0 33 -35 48 -66 28 -21
-14 -26 -14 -39 -1 -13 12 -13 16 0 26 20 16 19 57 -1 68 -14 8 -14 10 0 21
22 18 20 58 -3 71 -27 14 -37 13 -55 -6 -15 -14 -17 -14 -32 0 -20 20 -38 20
-58 0 -15 -14 -17 -14 -32 0 -19 20 -35 20 -59 2 -28 -20 -47 1 -28 31 30 45
-15 90 -60 60 -30 -19 -51 0 -31 28 18 24 18 40 -2 59 -18 19 -45 21 -62 4z
m457 -612 c17 -20 -13 -44 -34 -26 -11 9 -12 15 -2 25 15 18 22 18 36 1z m182
-116 c-15 -15 -17 -15 -32 -1 -14 14 -14 17 0 27 10 8 20 9 32 1 15 -9 15 -11
0 -27z"/>
<path d="M2286 1984 c-9 -8 -16 -22 -16 -29 0 -7 7 -21 16 -29 30 -30 74 -13
74 29 0 42 -44 59 -74 29z"/>
<path d="M1018 1899 c-36 -21 -16 -79 27 -79 44 0 63 60 26 80 -24 12 -31 12
-53 -1z"/>
<path d="M2196 1894 c-19 -18 -20 -28 -6 -55 20 -37 80 -18 80 26 0 42 -44 59
-74 29z"/>
<path d="M2377 1893 c-22 -25 -11 -62 21 -70 19 -4 30 0 44 17 16 20 17 25 5
44 -19 28 -49 31 -70 9z"/>
<path d="M2284 1799 c-17 -19 -17 -22 -2 -49 14 -25 14 -29 0 -44 -24 -24 -1
-66 37 -66 18 0 31 6 35 17 6 15 8 14 20 -3 12 -15 11 -22 -1 -41 -14 -20 -14
-26 0 -46 13 -20 13 -26 1 -42 -18 -25 -18 -31 5 -54 22 -22 57 -18 70 8 10
18 -3 61 -19 61 -5 0 -2 8 8 18 12 13 20 15 27 6 19 -21 45 -24 63 -6 16 16
18 16 35 0 9 -10 12 -18 7 -18 -16 0 -29 -43 -19 -61 13 -26 48 -30 70 -8 24
24 24 34 2 57 -17 16 -17 18 -1 34 14 14 17 14 22 2 8 -21 63 -18 76 5 15 29
13 39 -15 57 -22 15 -27 15 -48 1 -19 -12 -25 -12 -44 0 -17 11 -26 12 -42 3
-12 -6 -21 -15 -21 -20 0 -6 -9 -1 -20 10 -25 25 -35 25 -57 3 -17 -17 -19
-17 -35 -1 -14 14 -14 17 -2 22 8 3 14 19 14 36 0 40 -40 62 -67 37 -15 -13
-21 -13 -36 -3 -15 12 -15 15 -2 26 21 18 19 57 -4 70 -28 14 -35 13 -57 -11z"/>
<path d="M2466 1799 c-21 -31 -6 -63 30 -67 41 -4 62 30 39 64 -19 30 -49 31
-69 3z"/>
<path d="M2748 1809 c-22 -12 -23 -52 -2 -70 14 -11 14 -13 0 -21 -19 -11 -21
-49 -4 -66 15 -15 51 -15 66 0 8 8 15 8 26 -1 14 -11 14 -15 1 -28 -20 -20
-19 -46 3 -66 16 -15 21 -15 46 -1 26 13 31 13 45 0 14 -12 21 -13 41 -3 30
15 37 49 15 71 -21 21 -41 20 -64 -3 -17 -17 -19 -17 -29 0 -9 13 -8 20 3 29
19 16 19 44 0 60 -14 12 -14 15 1 31 21 23 12 65 -17 74 -11 4 -30 0 -44 -9
-20 -13 -25 -13 -35 -1 -14 17 -28 18 -52 4z m84 -95 c-24 -18 -46 1 -29 26
10 18 13 18 29 3 17 -15 17 -17 0 -29z"/>
<path d="M194 1709 c-17 -19 -18 -22 -2 -49 14 -25 14 -31 2 -40 -10 -9 -17
-8 -29 4 -21 21 -38 20 -58 -2 -21 -23 -21 -41 -2 -62 14 -15 14 -18 -1 -30
-10 -9 -18 -10 -22 -4 -13 19 -40 23 -61 8 -25 -18 -27 -46 -6 -64 14 -12 14
-15 -1 -31 -18 -20 -12 -69 8 -69 6 0 3 -9 -7 -20 -33 -36 0 -89 46 -75 26 9
35 51 16 73 -13 15 -13 19 -1 30 18 17 18 46 -1 62 -13 10 -13 14 0 27 13 12
18 12 37 -1 28 -20 33 -20 52 0 20 19 20 48 1 67 -12 13 -13 17 0 27 11 9 19
8 36 -3 22 -16 48 -12 61 7 13 19 9 56 -7 62 -13 5 -13 8 0 21 21 21 19 60 -4
73 -28 14 -35 13 -57 -11z"/>
<path d="M1566 1717 c-12 -9 -17 -23 -14 -42 2 -25 8 -31 33 -33 19 -3 33 2
42 14 17 24 17 30 -7 54 -24 24 -30 24 -54 7z"/>
<path d="M1748 1719 c-21 -12 -23 -46 -5 -68 12 -14 11 -19 -5 -33 -10 -10
-18 -14 -18 -8 0 19 -39 31 -61 20 -15 -9 -19 -19 -17 -43 2 -27 8 -33 31 -35
16 -2 35 2 42 8 11 9 18 8 30 -4 9 -9 12 -16 6 -16 -13 0 -24 -36 -16 -59 8
-27 34 -34 60 -17 20 13 25 13 44 -1 20 -13 24 -13 48 2 14 10 28 13 32 8 12
-18 39 -21 60 -7 25 18 27 46 6 64 -14 12 -14 15 0 30 19 21 19 44 -1 65 -16
16 -53 12 -65 -7 -4 -6 -17 -3 -32 7 -20 13 -30 14 -46 5 -12 -6 -21 -16 -21
-22 0 -7 -6 -3 -14 7 -11 16 -11 22 3 46 14 26 14 29 -3 48 -21 23 -33 25 -58
10z m89 -160 c8 -8 7 -16 -5 -30 -15 -17 -16 -17 -28 -1 -20 27 9 55 33 31z
m90 0 c18 -18 -13 -45 -32 -29 -12 10 -13 16 -4 26 14 17 22 17 36 3z"/>
<path d="M836 1624 c-20 -19 -20 -48 -1 -64 13 -11 13 -14 0 -27 -20 -19 -19
-60 1 -71 14 -8 14 -10 0 -21 -11 -9 -20 -10 -28 -4 -26 20 -48 22 -63 7 -12
-13 -19 -13 -30 -4 -7 6 -26 10 -42 8 -23 -2 -29 -8 -31 -35 -3 -27 1 -35 24
-45 23 -11 28 -10 43 8 15 18 17 18 32 4 12 -13 13 -18 2 -29 -18 -16 -16 -58
2 -69 14 -7 13 -10 -3 -26 -17 -15 -20 -15 -25 -1 -7 15 -33 20 -61 9 -10 -4
-16 -18 -16 -35 0 -39 41 -61 67 -36 15 13 21 13 36 3 15 -12 15 -15 2 -26
-20 -16 -19 -59 0 -67 14 -5 14 -8 -1 -24 -14 -16 -18 -16 -31 -4 -29 30 -73
11 -73 -30 0 -12 5 -26 12 -33 8 -8 8 -15 -1 -26 -12 -14 -15 -14 -28 0 -22
21 -55 14 -70 -16 -10 -20 -9 -27 4 -42 20 -22 46 -23 66 -3 13 13 16 13 27 0
16 -19 45 -19 64 1 20 20 20 38 0 58 -12 13 -13 18 -2 30 11 12 15 12 30 -1
22 -20 65 -10 73 18 4 12 0 30 -9 44 -9 14 -12 25 -7 25 18 0 23 41 7 65 -13
20 -13 25 -1 35 19 16 19 39 1 59 -13 14 -13 19 0 35 8 11 14 14 14 8 0 -7 11
-18 25 -24 21 -9 28 -8 45 7 24 22 25 42 5 65 -14 15 -14 18 0 30 8 7 15 20
15 30 0 10 -7 23 -15 30 -14 12 -14 15 0 30 19 21 19 39 0 60 -14 15 -14 18 0
30 22 18 19 46 -7 64 -28 20 -33 20 -52 0z m-1 -248 c12 -12 12 -16 -3 -29
-16 -15 -19 -15 -29 2 -9 14 -9 21 0 30 14 14 16 14 32 -3z"/>
<path d="M1478 1628 c-40 -33 -23 -82 26 -76 39 4 53 41 26 68 -23 23 -31 24
-52 8z"/>
<path d="M289 1531 c-23 -19 -23 -21 -8 -48 14 -26 14 -32 1 -51 -13 -19 -13
-25 0 -44 13 -19 13 -25 -1 -50 -15 -26 -15 -29 6 -50 19 -19 26 -20 48 -10
28 13 34 51 12 74 -10 11 -9 16 5 31 10 9 18 13 18 7 0 -15 37 -31 55 -24 22
9 35 45 23 67 -10 20 -63 23 -75 4 -6 -10 -11 -10 -25 4 -14 15 -14 18 -2 23
21 8 18 63 -5 76 -26 13 -25 13 -52 -9z"/>
<path d="M573 1539 c-48 -18 -22 -95 28 -82 27 8 42 38 30 62 -13 24 -31 30
-58 20z"/>
<path d="M1471 1441 c-16 -16 -20 -17 -25 -5 -3 8 -19 14 -35 14 -40 0 -59
-32 -38 -64 11 -17 12 -25 3 -38 -9 -13 -13 -13 -24 -2 -22 23 -61 17 -74 -11
-10 -22 -9 -29 10 -48 22 -21 24 -21 52 -5 26 14 30 15 41 1 8 -9 9 -17 3 -21
-21 -14 -25 -45 -8 -63 21 -23 47 -24 64 -4 11 14 15 14 32 -2 18 -16 21 -16
48 -1 25 14 31 14 41 2 15 -18 38 -18 58 0 13 12 19 12 34 2 15 -12 15 -15 2
-26 -18 -15 -20 -51 -3 -68 8 -8 8 -15 -1 -26 -11 -14 -15 -14 -28 -1 -20 20
-46 19 -66 -3 -13 -15 -14 -22 -4 -42 15 -31 43 -37 66 -16 16 15 19 15 31 1
16 -19 44 -19 64 1 20 20 20 38 0 58 -14 15 -14 17 0 32 21 20 20 40 -2 62
-17 17 -17 20 -3 29 11 7 23 5 42 -6 25 -14 29 -14 46 1 16 14 20 15 37 2 25
-18 41 -18 58 0 11 11 17 11 31 1 15 -11 16 -14 2 -25 -21 -18 -19 -57 4 -70
27 -14 37 -13 55 6 15 14 17 14 32 0 18 -19 28 -20 55 -6 21 12 25 50 7 68
-15 15 -51 15 -66 0 -8 -8 -15 -8 -26 1 -14 11 -14 15 -1 28 30 29 11 73 -31
73 -12 0 -27 -7 -34 -15 -11 -13 -14 -13 -26 2 -10 15 -10 21 2 34 17 19 18
41 2 57 -15 15 -51 15 -66 0 -17 -17 -15 -58 3 -65 14 -5 14 -8 -1 -25 -16
-16 -19 -17 -26 -3 -12 20 -52 19 -69 -1 -11 -14 -13 -14 -21 0 -11 20 -52 21
-68 1 -10 -13 -14 -13 -26 0 -13 13 -13 18 2 40 15 22 15 28 2 47 -13 20 -13
26 -1 44 15 24 9 50 -16 63 -19 10 -61 -4 -61 -21 0 -7 -4 -6 -12 4 -21 26
-47 29 -67 9z m27 -81 c4 0 17 6 28 14 16 11 23 12 37 1 15 -11 16 -13 2 -19
-18 -6 -20 -57 -4 -73 9 -9 8 -16 -4 -27 -13 -14 -16 -14 -21 -1 -7 18 -50 20
-68 2 -11 -10 -16 -10 -30 4 -14 15 -14 18 -2 23 8 3 14 19 14 36 0 17 -6 33
-14 36 -12 5 -12 8 2 22 16 16 18 16 35 0 9 -10 20 -18 25 -18z"/>
<path d="M2484 1450 c-39 -15 -40 -60 -3 -81 37 -19 79 24 59 61 -12 23 -30
29 -56 20z"/>
<path d="M2842 1444 c-25 -18 -28 -46 -7 -67 13 -13 13 -16 0 -27 -24 -20 -18
-59 10 -72 21 -9 28 -8 45 7 24 22 26 48 5 65 -14 12 -14 15 1 31 20 22 15 47
-11 65 -18 12 -24 11 -43 -2z"/>
<path d="M460 1341 c-22 -42 24 -84 64 -58 19 13 25 13 41 1 27 -20 42 -17 60
10 13 19 14 29 5 45 -13 26 -65 29 -78 5 -8 -15 -10 -15 -15 0 -9 23 -64 21
-77 -3z"/>
<path d="M2646 1344 c-12 -32 -6 -55 19 -66 22 -10 29 -9 47 10 19 18 20 25
10 47 -14 29 -66 36 -76 9z"/>
<path d="M188 1245 c-17 -38 19 -74 57 -57 16 8 25 20 25 35 0 50 -62 66 -82
22z"/>
<path d="M370 1250 c-11 -21 2 -60 20 -60 6 0 2 -8 -7 -18 -15 -16 -20 -17
-34 -5 -25 21 -58 16 -71 -12 -9 -21 -8 -28 7 -45 16 -18 16 -20 1 -35 -19
-20 -20 -34 -1 -59 12 -16 12 -20 -1 -33 -18 -19 -18 -38 2 -57 14 -15 14 -17
0 -32 -20 -19 -20 -35 -2 -60 13 -17 12 -21 -1 -37 -13 -14 -14 -22 -5 -42 11
-25 34 -31 66 -19 21 8 21 60 0 72 -14 8 -14 10 0 21 19 16 21 52 4 69 -8 8
-8 15 1 26 11 14 15 14 28 1 20 -20 46 -19 66 3 13 15 14 22 4 42 -15 31 -43
37 -66 16 -16 -15 -19 -15 -31 -1 -10 12 -10 19 -2 27 15 15 15 51 0 66 -8 8
-8 15 2 27 12 14 15 14 30 0 9 -8 24 -15 32 -15 9 0 21 7 28 15 12 14 15 14
30 0 21 -19 39 -19 60 0 15 14 18 14 30 0 17 -20 43 -19 63 3 20 22 12 59 -14
67 -23 8 -59 -3 -59 -16 0 -6 -7 -3 -16 5 -19 20 -48 20 -67 1 -13 -12 -17
-13 -27 0 -9 11 -8 19 3 36 16 22 12 48 -7 61 -21 14 -55 8 -66 -12z"/>
<path d="M922 1258 c-32 -32 4 -87 48 -73 25 8 37 50 20 70 -15 18 -51 20 -68
3z"/>
<path d="M2922 1258 c-32 -32 4 -87 48 -73 25 8 37 50 20 70 -15 18 -51 20
-68 3z"/>
<path d="M10 1165 c-14 -17 -5 -65 12 -65 6 0 4 -8 -6 -19 -41 -46 18 -107 64
-66 11 10 20 13 20 7 0 -17 48 -26 65 -12 18 15 20 51 3 68 -17 17 -58 15 -65
-3 -5 -14 -8 -14 -25 1 -16 16 -17 19 -3 26 18 11 20 49 3 66 -17 17 -53 15
-68 -3z"/>
<path d="M1190 1160 c-12 -22 -5 -60 11 -60 6 0 3 -10 -5 -22 -20 -28 -20 -43
0 -62 12 -13 13 -18 2 -30 -11 -12 -15 -12 -30 1 -22 20 -65 10 -73 -18 -4
-12 0 -30 9 -44 9 -14 12 -25 7 -25 -19 0 -23 -41 -7 -65 9 -14 12 -25 6 -25
-16 0 -24 -49 -10 -65 15 -18 51 -20 68 -3 17 17 15 55 -3 66 -14 7 -13 10 3
26 17 15 20 15 25 1 8 -20 51 -19 68 1 11 14 13 14 21 0 11 -20 52 -21 68 -1
11 13 14 13 27 0 19 -19 48 -19 67 0 13 14 16 14 25 -2 6 -13 5 -24 -5 -38
-19 -25 -18 -31 8 -55 12 -11 17 -20 10 -20 -20 0 -34 -38 -22 -60 12 -23 64
-28 77 -7 6 10 11 10 25 -4 14 -15 14 -18 2 -23 -8 -3 -14 -19 -14 -36 0 -17
6 -33 14 -36 12 -5 12 -8 -2 -22 -16 -16 -18 -16 -34 0 -10 10 -22 18 -28 18
-13 0 -50 -37 -50 -50 0 -13 37 -50 50 -50 6 0 18 8 28 18 16 16 18 16 34 0
12 -12 13 -18 4 -21 -23 -9 -26 -47 -5 -68 24 -24 34 -24 59 1 25 25 25 35 3
58 -17 16 -17 18 0 35 15 15 18 15 23 3 9 -23 35 -28 60 -11 29 19 30 39 4 65
-25 25 -35 25 -57 3 -17 -17 -19 -17 -35 0 -10 9 -14 17 -8 17 5 0 14 9 20 21
9 16 8 25 -3 42 -12 19 -12 25 1 45 13 19 13 25 -2 47 -19 28 -33 31 -62 11
-15 -11 -23 -12 -36 -2 -16 12 -15 14 3 29 24 21 24 32 -1 57 -17 17 -18 21
-6 26 23 9 28 35 11 60 -14 21 -14 26 0 47 13 21 13 25 -1 45 -19 28 -49 28
-68 1 -15 -21 -11 -48 8 -61 6 -4 5 -12 -4 -22 -12 -15 -15 -15 -30 -1 -21 19
-39 19 -60 0 -15 -14 -18 -14 -30 0 -16 19 -39 19 -59 1 -13 -12 -19 -12 -34
-2 -15 12 -15 15 -2 26 18 15 20 51 3 68 -8 8 -8 15 1 26 11 14 15 14 28 1 29
-30 73 -11 73 30 0 12 -5 26 -12 33 -9 9 -9 15 0 24 15 15 15 51 0 66 -17 17
-55 15 -66 -4 -8 -14 -10 -14 -21 0 -19 23 -58 20 -71 -4z m97 -80 c-10 -18
-13 -18 -29 -3 -17 15 -17 17 0 29 24 18 46 -1 29 -26z m-91 -185 c-8 -9 -15
-9 -28 -1 -16 9 -16 12 -1 28 15 17 17 17 28 1 9 -12 9 -20 1 -28z"/>
<path d="M2190 1161 c-14 -27 -13 -37 6 -55 14 -15 14 -17 0 -32 -9 -8 -16
-22 -16 -29 0 -7 7 -21 16 -29 14 -14 14 -18 1 -31 -13 -13 -16 -13 -27 0 -16
19 -44 19 -62 1 -12 -11 -17 -11 -33 0 -26 19 -52 18 -65 -3 -10 -17 -10 -17
-20 0 -13 21 -53 22 -70 2 -11 -13 -14 -13 -27 0 -19 19 -47 19 -63 0 -11 -13
-14 -13 -27 0 -29 30 -73 11 -73 -30 0 -12 5 -26 12 -33 17 -17 55 -15 66 4 8
14 10 14 21 0 17 -20 60 -21 68 -1 5 14 8 14 25 -1 16 -16 17 -19 3 -26 -20
-12 -19 -52 1 -69 14 -11 14 -13 0 -21 -20 -11 -21 -52 -1 -68 13 -11 13 -14
0 -27 -30 -29 -11 -73 30 -73 41 0 60 44 30 73 -13 13 -13 17 1 28 11 9 18 9
26 1 15 -15 51 -15 66 0 9 9 15 9 24 0 17 -17 53 -15 68 3 11 13 14 13 26 -2
10 -15 10 -21 -4 -36 -15 -17 -15 -21 0 -47 14 -25 14 -31 2 -41 -18 -15 -18
-43 0 -58 12 -10 12 -16 -2 -41 -15 -27 -15 -30 1 -48 16 -17 16 -21 2 -32
-19 -16 -19 -44 -1 -59 12 -10 12 -16 -2 -41 -16 -28 -16 -30 5 -52 19 -19 26
-20 48 -10 18 9 25 19 25 41 0 17 -6 31 -15 35 -13 5 -13 8 2 23 17 17 19 17
36 0 22 -22 32 -22 55 1 17 17 20 17 29 3 7 -11 6 -22 -4 -38 -11 -17 -12 -27
-3 -42 6 -12 15 -21 20 -21 6 0 2 -8 -7 -18 -15 -16 -20 -17 -34 -5 -25 21
-58 16 -71 -12 -10 -22 -9 -29 10 -48 21 -21 24 -21 51 -6 24 14 30 14 46 3
10 -8 13 -14 7 -14 -7 0 -17 -12 -23 -26 -7 -21 -6 -31 7 -45 15 -17 15 -19 0
-34 -20 -21 -20 -39 0 -59 20 -20 48 -20 64 -1 12 14 15 14 31 -1 23 -21 51
-15 66 16 10 20 9 27 -4 42 -13 14 -13 20 -3 33 12 14 15 14 30 0 23 -21 46
-19 64 7 20 28 20 33 0 53 -12 12 -13 19 -4 29 9 12 16 12 40 -2 27 -16 31
-16 46 -1 15 16 18 16 45 0 27 -15 29 -15 51 6 19 19 20 26 10 48 -13 28 -52
34 -71 11 -11 -13 -15 -12 -29 2 -16 16 -16 18 2 33 18 14 19 20 8 43 -14 31
-66 37 -76 9 -6 -15 -8 -14 -20 3 -12 15 -11 22 1 41 14 20 14 26 0 46 -13 20
-13 26 -1 42 18 25 18 31 -6 55 -11 11 -16 20 -10 20 5 0 14 9 20 21 9 16 8
26 -3 43 -11 17 -12 25 -3 38 9 13 13 13 24 2 22 -23 61 -17 74 11 9 21 9 29
-4 41 -14 15 -14 19 1 45 15 27 15 29 -7 51 -21 22 -24 22 -51 7 -24 -14 -30
-14 -46 -3 -10 8 -14 14 -7 14 6 0 16 9 22 21 24 43 -39 91 -70 54 -12 -14
-15 -14 -30 0 -23 21 -46 19 -64 -7 -20 -28 -20 -33 0 -53 13 -12 14 -18 4
-31 -11 -13 -15 -13 -30 1 -21 19 -44 19 -59 1 -10 -12 -16 -12 -41 2 -26 15
-30 15 -47 0 -15 -14 -21 -14 -36 -4 -15 12 -15 15 -2 26 18 15 20 51 3 68 -9
9 -9 15 0 24 17 17 15 58 -3 65 -14 5 -14 8 1 24 14 16 18 16 31 4 29 -30 73
-11 73 30 0 41 -44 60 -73 30 -13 -13 -17 -13 -28 1 -9 11 -9 18 -1 26 15 15
15 51 0 66 -18 18 -56 14 -68 -7z m-86 -269 c-18 -17 -18 -33 0 -57 20 -27 -1
-48 -29 -29 -25 18 -40 18 -59 -2 -14 -14 -18 -14 -31 -1 -13 13 -13 16 0 27
8 7 15 21 15 31 0 9 -7 24 -15 32 -13 13 -13 17 1 28 11 9 18 9 26 1 17 -17
53 -15 68 3 11 14 14 13 25 -2 10 -14 10 -20 -1 -31z m92 3 c-8 -9 -15 -9 -28
-1 -16 9 -16 12 -1 28 15 17 17 17 28 1 9 -12 9 -20 1 -28z m2 -92 c-7 -9 -14
-9 -28 0 -18 10 -18 13 -3 29 15 17 17 17 29 0 8 -11 9 -21 2 -29z m363 3
c-10 -12 -17 -13 -31 -3 -18 11 -18 12 -2 28 14 14 19 15 31 3 12 -10 12 -16
2 -28z m-247 -76 c13 0 29 7 37 16 11 14 13 14 21 0 11 -20 52 -21 70 -3 11
12 16 12 26 0 16 -17 47 -17 64 0 11 10 16 10 30 -4 14 -15 14 -18 2 -23 -20
-8 -18 -65 2 -73 15 -5 15 -7 0 -15 -22 -12 -21 -64 2 -77 10 -6 12 -11 4 -11
-22 0 -32 -42 -16 -68 13 -20 13 -24 0 -37 -11 -12 -15 -12 -19 -1 -9 23 -47
26 -67 6 -15 -15 -19 -16 -24 -4 -8 20 -65 18 -73 -2 -5 -15 -7 -15 -15 0 -10
19 -59 21 -76 4 -8 -8 -15 -8 -27 2 -15 12 -15 14 -1 22 20 11 21 52 3 70 -12
11 -12 16 0 26 18 17 17 61 -2 68 -13 5 -13 8 0 21 20 19 19 62 0 70 -14 5
-14 8 1 25 16 16 19 17 26 3 5 -8 19 -15 32 -15z m338 -16 c-14 -10 -19 -10
-31 1 -11 11 -11 15 0 28 12 13 16 13 31 0 17 -15 17 -17 0 -29z m-182 -364
c-13 -13 -17 -13 -30 0 -13 13 -13 17 0 30 13 13 17 13 30 0 13 -13 13 -17 0
-30z m90 0 c-13 -13 -17 -13 -30 0 -13 13 -13 17 0 30 13 13 17 13 30 0 13
-13 13 -17 0 -30z m-41 -69 c24 14 30 14 46 3 10 -8 13 -14 7 -14 -22 0 -32
-43 -15 -68 11 -18 12 -27 3 -37 -10 -12 -14 -12 -27 0 -8 8 -23 15 -33 15
-10 0 -25 -7 -33 -15 -13 -13 -17 -13 -28 1 -9 11 -9 18 -1 26 16 16 15 65 0
71 -10 3 -10 8 1 21 13 15 15 15 33 -1 18 -16 22 -16 47 -2z m133 -21 c-15
-14 -18 -14 -32 0 -14 13 -14 16 -1 26 11 9 20 9 33 1 16 -10 16 -12 0 -27z
m-185 -184 c-13 -14 -16 -14 -27 -1 -10 12 -10 18 0 31 12 13 15 13 28 0 13
-13 13 -16 -1 -30z"/>
<path d="M2380 620 c-25 -25 -25 -35 0 -60 15 -15 25 -17 42 -11 30 11 37 60
12 78 -24 17 -30 17 -54 -7z"/>
<path d="M2556 1158 c-13 -19 -14 -25 -2 -43 18 -26 43 -31 65 -11 16 15 19
15 31 1 10 -12 10 -19 2 -27 -17 -17 -15 -53 3 -68 17 -14 65 -5 65 12 0 6 9
3 20 -7 40 -36 96 7 70 55 -13 24 -52 27 -70 5 -11 -13 -14 -13 -26 2 -10 15
-10 21 3 36 13 14 14 22 5 42 -13 28 -52 34 -72 10 -11 -13 -14 -13 -27 0 -21
21 -49 18 -67 -7z"/>
<path d="M922 1078 c-7 -7 -12 -21 -12 -33 0 -12 5 -26 12 -33 9 -9 9 -15 0
-24 -17 -17 -15 -53 4 -69 14 -11 14 -13 0 -21 -21 -12 -21 -52 0 -69 14 -11
14 -13 0 -21 -20 -11 -21 -52 -1 -68 13 -11 13 -14 -2 -26 -15 -10 -21 -10
-36 4 -17 15 -21 15 -47 0 -38 -22 -54 -6 -31 33 15 26 15 29 -1 45 -15 15
-15 19 -1 40 19 30 9 62 -23 70 -46 12 -75 -46 -38 -77 14 -11 14 -13 0 -21
-21 -12 -21 -52 0 -69 14 -11 14 -13 0 -21 -21 -12 -21 -52 0 -69 14 -11 14
-13 0 -21 -21 -12 -21 -52 0 -69 14 -11 14 -13 0 -21 -21 -12 -21 -64 0 -72
14 -5 14 -7 0 -22 -26 -25 -20 -63 10 -75 21 -7 31 -6 45 7 16 15 20 15 33 1
14 -13 14 -16 1 -27 -24 -20 -18 -59 10 -72 21 -9 28 -8 45 7 24 22 26 48 5
65 -12 10 -13 16 -4 27 10 11 16 11 37 -3 20 -13 28 -14 48 -3 27 14 32 50 9
69 -13 11 -13 14 0 27 19 19 19 42 0 63 -14 15 -14 18 1 30 12 11 17 11 23 1
11 -17 62 -10 75 12 12 19 2 43 -27 61 -12 8 -21 6 -36 -8 -18 -16 -22 -17
-35 -3 -14 13 -14 16 -1 27 20 17 19 56 -1 64 -16 6 -16 8 0 24 20 23 21 46 1
65 -13 13 -13 16 0 27 19 16 19 44 0 63 -13 13 -13 16 0 27 20 17 19 57 -2 69
-17 9 -17 11 1 24 17 12 22 12 34 1 28 -29 72 -10 72 31 0 40 -50 61 -78 33
-9 -9 -15 -9 -24 0 -15 15 -51 15 -66 0z m-56 -438 c11 0 25 5 32 12 8 8 15 8
26 -1 14 -11 14 -15 1 -28 -8 -8 -15 -23 -15 -32 0 -10 7 -24 15 -31 13 -10
13 -14 0 -27 -13 -12 -18 -12 -37 1 -28 20 -33 20 -53 0 -12 -13 -18 -14 -31
-4 -13 11 -13 15 1 30 19 21 19 44 0 60 -11 9 -12 16 -2 30 10 17 13 17 27 5
9 -8 25 -15 36 -15z m-32 -199 c-10 -12 -16 -12 -28 -2 -12 10 -13 17 -3 31
11 18 12 18 28 2 14 -14 15 -19 3 -31z m95 25 c17 -20 -13 -43 -34 -26 -12 10
-13 16 -4 26 6 8 15 14 19 14 4 0 13 -6 19 -14z"/>
<path d="M2471 1081 c-7 -5 -13 -21 -13 -36 0 -28 15 -45 42 -45 27 0 43 17
43 45 0 28 -16 45 -43 45 -8 0 -21 -4 -29 -9z"/>
<path d="M2832 988 c-7 -7 -12 -21 -12 -33 0 -44 60 -63 80 -26 14 27 13 37
-6 55 -18 19 -45 21 -62 4z"/>
<path d="M16 804 c-30 -30 -13 -74 29 -74 12 0 26 5 33 12 9 9 15 9 24 0 7 -7
21 -12 33 -12 45 0 63 60 25 80 -22 12 -60 5 -60 -11 0 -6 -10 -3 -22 5 -28
20 -43 20 -62 0z"/>
<path d="M563 808 c-31 -40 -14 -78 33 -78 34 0 52 45 28 71 -20 22 -47 25
-61 7z"/>
<path d="M2928 809 c-36 -21 -16 -79 27 -79 42 0 59 44 29 74 -18 18 -32 20
-56 5z"/>
<path d="M1194 709 c-17 -19 -18 -22 -2 -49 14 -25 14 -31 2 -41 -19 -16 -18
-35 6 -59 17 -17 24 -18 45 -8 14 6 25 16 25 22 0 5 6 1 14 -10 13 -16 12 -21
-1 -36 -31 -34 16 -90 57 -68 25 13 28 68 4 77 -15 5 -15 7 0 15 23 13 21 65
-4 78 -21 11 -60 -2 -60 -20 0 -6 -8 -2 -18 8 -16 14 -17 19 -5 33 19 23 16
57 -6 69 -28 14 -35 13 -57 -11z"/>
<path d="M1748 719 c-22 -12 -23 -52 -2 -70 14 -11 14 -13 0 -21 -17 -9 -21
-45 -8 -64 13 -19 39 -23 61 -8 24 17 27 46 7 63 -12 10 -12 16 2 41 16 27 15
30 -2 49 -21 23 -33 25 -58 10z"/>
<path d="M2838 719 c-22 -12 -23 -52 -2 -70 14 -11 14 -13 0 -21 -20 -11 -21
-52 -1 -68 13 -11 13 -14 0 -27 -19 -19 -19 -48 1 -67 19 -20 24 -20 53 0 14
10 26 13 30 7 12 -18 39 -21 60 -7 26 19 27 45 2 68 -15 14 -23 15 -45 5 -14
-7 -26 -17 -26 -23 0 -5 -6 -1 -14 10 -13 16 -13 21 0 35 18 20 18 38 -1 59
-14 15 -14 18 0 30 20 17 19 43 -3 63 -21 19 -30 20 -54 6z"/>
<path d="M162 625 c-62 -19 -106 -57 -136 -117 -24 -48 -26 -62 -26 -181 0
-159 11 -198 70 -257 59 -59 98 -70 257 -70 119 0 133 2 182 26 62 31 104 84
120 152 6 26 10 100 8 167 -4 132 -18 175 -74 226 -58 55 -88 63 -228 66 -86
1 -144 -3 -173 -12z m314 -99 c58 -35 69 -66 68 -207 -1 -200 -28 -229 -224
-229 -128 0 -167 12 -204 63 -18 24 -22 46 -24 145 -4 138 6 182 51 216 39 29
53 32 192 31 88 -1 117 -5 141 -19z"/>
<path d="M258 436 c-103 -53 -100 -187 5 -239 134 -67 256 114 148 217 -43 41
-101 49 -153 22z"/>
<path d="M2028 543 c-26 -6 -34 -50 -14 -72 15 -16 15 -19 1 -31 -8 -7 -15
-21 -15 -31 0 -23 42 -52 64 -43 24 9 31 51 13 72 -13 15 -13 19 0 30 30 29
-7 85 -49 75z"/>
<path d="M1760 452 c-40 -14 -41 -68 -3 -83 23 -8 30 -7 43 8 14 17 16 17 32
1 14 -14 15 -18 2 -29 -20 -17 -17 -57 5 -69 27 -14 37 -13 55 6 14 14 18 14
31 1 13 -13 13 -16 0 -27 -24 -20 -18 -59 10 -72 19 -9 29 -8 50 6 14 9 25 12
25 7 0 -16 38 -23 60 -11 22 12 27 49 8 68 -15 15 -51 15 -66 0 -8 -8 -15 -8
-26 1 -14 11 -14 15 -1 28 30 29 11 73 -31 73 -12 0 -27 -7 -34 -15 -11 -13
-14 -13 -26 2 -10 15 -10 21 2 34 20 22 17 46 -8 63 -20 14 -24 14 -45 1 -20
-13 -26 -14 -45 -1 -13 7 -30 11 -38 8z"/>
<path d="M1010 345 c-14 -17 -5 -65 12 -65 6 0 3 -9 -7 -20 -39 -43 11 -98 60
-66 14 9 25 12 25 7 0 -16 38 -23 60 -11 22 12 27 49 8 68 -15 15 -51 15 -66
0 -8 -8 -15 -8 -26 1 -14 11 -14 15 -1 28 30 29 11 73 -31 73 -12 0 -27 -7
-34 -15z"/>
<path d="M1370 341 c-11 -22 1 -61 20 -61 6 0 2 -8 -7 -19 -15 -15 -20 -16
-29 -5 -19 24 -63 17 -76 -11 -9 -20 -8 -28 5 -42 13 -15 13 -21 3 -36 -12
-15 -15 -15 -26 -2 -18 22 -57 19 -70 -5 -12 -22 -5 -60 11 -60 5 0 4 -9 -3
-20 -11 -17 -14 -18 -28 -5 -23 21 -57 18 -70 -5 -26 -48 30 -91 70 -55 11 10
20 13 20 7 0 -17 48 -26 65 -12 18 15 20 51 3 68 -8 8 -8 15 1 26 11 14 15 14
28 1 29 -30 73 -11 73 31 0 12 -7 27 -15 34 -13 11 -13 14 2 26 15 10 21 10
34 -2 20 -18 43 -18 59 1 12 14 15 14 31 -1 21 -19 54 -11 69 16 22 42 -38 80
-72 47 -11 -10 -16 -10 -30 4 -14 15 -14 18 -2 23 10 4 14 17 12 38 -3 29 -7
33 -35 36 -24 2 -34 -2 -43 -17z"/>
<path d="M2920 345 c-7 -8 -10 -25 -6 -39 11 -45 71 -45 82 0 8 30 -11 54 -41
54 -12 0 -28 -7 -35 -15z"/>
<path d="M1742 258 c-21 -21 -14 -57 13 -70 22 -10 29 -9 47 10 19 18 20 25
10 47 -13 27 -49 34 -70 13z"/>
<path d="M832 168 c-7 -7 -12 -21 -12 -33 0 -12 5 -26 12 -33 9 -9 9 -15 0
-24 -17 -17 -15 -53 3 -68 17 -14 65 -5 65 12 0 6 9 3 20 -7 46 -41 105 20 64
66 -10 11 -12 19 -6 19 17 0 26 48 12 65 -16 20 -54 19 -71 -1 -11 -14 -13
-14 -21 0 -11 19 -49 21 -66 4z m91 -90 c-15 -17 -17 -17 -28 -1 -17 23 2 45
27 29 16 -9 16 -12 1 -28z"/>
<path d="M1832 168 c-17 -17 -15 -53 3 -68 20 -17 62 -5 70 20 14 44 -41 80
-73 48z"/>
<path d="M2100 160 c-12 -22 -5 -60 11 -60 5 0 2 -11 -7 -25 -32 -49 23 -99
66 -60 11 10 20 13 20 7 0 -17 48 -26 65 -12 18 15 20 51 3 68 -9 9 -9 15 0
24 29 29 7 78 -35 78 -12 0 -26 -7 -31 -16 -8 -14 -10 -14 -21 0 -19 23 -58
20 -71 -4z m96 -82 c-9 -16 -12 -16 -28 -1 -17 15 -17 17 -1 28 23 17 45 -2
29 -27z"/>
<path d="M1556 68 c-13 -19 -14 -25 -2 -43 18 -27 43 -31 67 -9 23 21 24 37 3
58 -22 22 -50 20 -68 -6z"/>
<path d="M1742 78 c-17 -17 -15 -53 3 -68 20 -17 62 -5 70 20 14 44 -41 80
-73 48z"/>
<path d="M1922 78 c-30 -30 -3 -82 40 -76 29 4 47 50 28 72 -15 19 -51 21 -68
4z"/>
<path d="M2922 78 c-30 -30 -3 -82 40 -76 29 4 47 50 28 72 -15 19 -51 21 -68
4z"/>
</g>
</svg>
