<?xml version="1.0" encoding="UTF-8" standalone="no"?>
<!-- Created with Inkscape (http://www.inkscape.org/) -->

<svg
   width="512"
   height="512"
   viewBox="0 0 512 512"
   version="1.1"
   id="svg1"
   inkscape:version="1.3.1 (9b9bdc1480, 2023-11-25, custom)"
   sodipodi:docname="wing"
   xmlns:inkscape="http://www.inkscape.org/namespaces/inkscape"
   xmlns:sodipodi="http://sodipodi.sourceforge.net/DTD/sodipodi-0.dtd"
   xmlns="http://www.w3.org/2000/svg"
   xmlns:svg="http://www.w3.org/2000/svg">
  <sodipodi:namedview
     id="namedview1"
     pagecolor="#ffffff"
     bordercolor="#000000"
     borderopacity="0.25"
     inkscape:showpageshadow="2"
     inkscape:pageopacity="0.0"
     inkscape:pagecheckerboard="0"
     inkscape:deskcolor="#d1d1d1"
     inkscape:document-units="px"
     inkscape:zoom="1.5854492"
     inkscape:cx="216.34247"
     inkscape:cy="292.66153"
     inkscape:window-width="3200"
     inkscape:window-height="1731"
     inkscape:window-x="0"
     inkscape:window-y="0"
     inkscape:window-maximized="1"
     inkscape:current-layer="layer1" />
  <defs
     id="defs1" />
  <g
     inkscape:label="Calque 1"
     inkscape:groupmode="layer"
     id="layer1">
    <g
       id="g13"
       transform="matrix(0.51056649,0,0,0.51056649,23.741536,109.70594)">
      <path
         class="cls-1"
         d="m 654.71,63.33 c -0.05,0.36 -0.12,0.72 -0.19,1.11 0.39,-0.35 0.77,-0.72 1.15,-1.11 h -0.97 z"
         id="path3"
         style="fill:none" />
      <path
         class="cls-4"
         d="M 519.65,94.05 C 444.54,62 367.63,35.66 286.87,21.78 c 0,0 0.01,0 0.02,0 -0.01,0 -0.02,0 -0.03,0 C 173.42,33.03 112.42,112.94 55.6,198.32 45.33,219.64 36.1,241.51 24.62,262.16 7.22,293.5 0.08,325.71 0,358.3 v 0.73 c 0.02,25.3 4.27,50.83 11.26,76.36 12.98,47.36 77.78,61.4 110.39,26.27 127.7,-137.58 269.92,-255.65 445.03,-329.28 0,0 0,-0.01 0,-0.02 -8.48,-21.58 -31.76,-25.06 -47.04,-38.3 z m -168.2,111.04 c -21.47,9.57 -42.95,19.14 -64.42,28.69 -24.37,10.8 -42.97,24.28 -49.38,54.18 -4.8,22.44 -19.93,42.86 -31.52,63.57 -6.95,12.4 -15.96,23.67 -26.65,34.81 14.28,-45.01 16.5,-90.36 9.53,-136.15 -2.06,-13.61 3.25,-17.21 16.32,-20.33 40.62,-9.71 80.61,-21.88 120.86,-33.08 0.03,0 0.06,0 0.08,0 -0.03,0 -0.06,-0.01 -0.08,-0.02 40.08,-15.13 80.16,-30.26 120.26,-45.41 -29.01,23.09 -59.65,42.72 -95,53.75 z"
         id="path4"
         style="fill:#c9d6e9" />
      <path
         class="cls-2"
         d="m 910.3,255.06 c 0,0 0,0.05 0,0.07 -22.57,-54.29 -56.8,-98.74 -108.49,-128.46 0,0 -0.01,0 -0.02,0 0,0 0.01,0 0.02,0 -33.96,6.7 -66.3,0.65 -103.67,-7.98 21.25,-16.21 43.19,0.81 57.2,-16.41 0,0 0,0 0,0 0,0 0,0 0,0 l -0.27,-0.34 c 0,0 0,0 0,0 H 642.22 c -0.27,-1.91 -0.54,-3.79 -0.83,-5.69 11.66,-4.33 23.33,-8.65 42.66,-15.85 -27.44,-1.3 -47.25,-2.22 -68.84,-3.25 11.32,-12.59 26.89,-1.59 39.3,-12.72 0.07,-0.38 0.13,-0.75 0.19,-1.11 h -62.74 c 7.49,-15.35 23.65,-3.3 29.27,-14.37 -97.21,2.47 -188.94,-39.74 -286.42,-35.17 0.01,0 0.02,0 0.03,0 -0.01,0 -0.03,0 -0.04,0 -16.45,-0.09 -32.69,0.94 -47.93,7.99 0,0 -0.01,0 -0.02,0 80.76,13.88 157.67,40.21 232.78,72.27 -4.42,-33.02 7.42,-39.23 36.83,-24.9 38.29,18.67 70.11,45.93 102.86,72.06 8.23,6.57 14.53,15.6 26.02,16.5 14.1,1.12 27.06,0.45 17.1,22.42 -3.18,7.04 13.09,10.42 20.44,15.56 4.37,3.07 38.08,-0.25 3.95,14.01 1.48,3.09 2.13,7.26 4.57,9.1 37.59,28.49 31.67,73.34 41.83,112.01 0.81,3.07 -5.66,8.04 -8.78,12.14 3.16,6.99 4.35,17.18 9.74,20.41 47.81,28.71 104.1,10.02 126.24,-42.36 4.17,-9.86 10.24,-17.8 15.29,-26.72 -0.89,-3.06 -1.25,-6.09 -1.26,-9.11 -1.39,-10.01 -2.79,-20.02 -4.18,-30.01 0,-0.03 0,-0.05 -0.01,-0.08 z"
         id="path5"
         style="fill:#6abfe4" />
      <path
         class="cls-7"
         d="m 773.26,330.8 c -10.15,-38.67 -4.24,-83.52 -41.83,-112.01 -2.44,-1.84 -3.09,-6.01 -4.57,-9.1 34.14,-14.26 0.43,-10.94 -3.95,-14.01 -7.35,-5.13 -23.63,-8.52 -20.44,-15.56 9.95,-21.97 -3,-21.29 -17.1,-22.42 -11.5,-0.9 -17.8,-9.93 -26.02,-16.5 -32.75,-26.14 -64.58,-53.39 -102.86,-72.06 -29.41,-14.32 -41.24,-8.11 -36.83,24.9 15.28,13.24 38.56,16.72 47.04,38.3 0,0 0,0.02 0.01,0.03 24.81,9.59 43.71,27.32 63.95,43.89 56.53,46.29 93.18,107.95 133.82,166.68 0,0 0,0 0,0 3.12,-4.1 9.59,-9.07 8.78,-12.14 z"
         id="path6"
         style="fill:#abdaf0" />
      <path
         class="cls-8"
         d="m 710.45,23.13 c 21.16,16.25 15.19,41.4 20.63,62.82 10.51,-16.88 17.59,-34.36 3.13,-57.22 29.72,9.82 49.07,23.04 56.15,47.5 3.86,13.38 13.4,17.89 22.82,24.84 52.25,38.65 93.6,84.5 97.12,154.01 0,0.03 0,0.05 0.01,0.08 1.39,9.99 2.79,20 4.18,30.01 0.42,3.04 0.85,6.07 1.27,9.11 8.7,-23.1 11.64,-47.21 12.55,-71.68 v -0.2 C 911.37,107.1 816.53,20.33 710.45,23.15 Z"
         id="path7"
         style="fill:#d3d2e6" />
      <path
         class="cls-8"
         d="m 731.08,85.97 c 0,0 0.01,0 0.02,0 0,0 -0.01,0 -0.02,-0.01 z"
         id="path8"
         style="fill:#d3d2e6" />
      <path
         class="cls-10"
         d="m 621.24,48.96 c -5.63,11.07 -21.79,-0.99 -29.27,14.37 h 63.7 c -0.38,0.39 -0.77,0.76 -1.15,1.11 -12.42,11.14 -27.98,0.14 -39.3,12.72 21.59,1.03 41.4,1.95 68.84,3.25 -19.32,7.2 -31,11.52 -42.66,15.85 0.29,1.91 0.56,3.79 0.83,5.69 H 755.08 C 747.09,96.62 739.1,91.3 731.11,85.97 c 0,0 -0.01,0 -0.02,0 0,0 0,0 0,-0.01 0,0 0,0 0,0 0,0 0,0 0,0 -5.44,-21.42 0.53,-46.57 -20.63,-62.82 0,0 0,0 -0.01,-0.01 C 688.33,11.05 664.21,8.49 639.55,7.35 610.41,5.98 581.36,3.18 552.22,1.61 479.34,-2.33 406.81,0.78 334.87,13.8 c -0.01,0 -0.02,0 -0.03,0 97.48,-4.57 189.21,37.64 286.42,35.17 z"
         id="path9"
         style="fill:#1697ce" />
      <path
         class="cls-6"
         d="m 326.28,196.77 c 0,0 -0.06,0 -0.08,0 -40.26,11.21 -80.25,23.38 -120.86,33.08 -13.07,3.12 -18.38,6.72 -16.32,20.33 6.97,45.79 4.75,91.14 -9.53,136.15 10.69,-11.14 19.7,-22.42 26.65,-34.81 11.59,-20.71 26.72,-41.13 31.52,-63.57 6.41,-29.9 25.02,-43.37 49.38,-54.18 21.47,-9.55 42.95,-19.12 64.42,-28.69 -6.14,-9.56 -16.5,-6.41 -25.18,-8.32 z"
         id="path10"
         style="fill:#d3194a" />
      <path
         class="cls-3"
         d="m 326.28,196.77 c 8.68,1.91 19.03,-1.24 25.18,8.32 35.35,-11.03 65.99,-30.66 95,-53.75 -40.1,15.15 -80.18,30.28 -120.26,45.41 0.03,0 0.06,0.01 0.08,0.02 z"
         id="path11"
         style="fill:#bc537a" />
      <path
         class="cls-5"
         d="m 731.08,85.95 c 0,0 0.01,0 0.02,0.01 7.99,5.33 15.98,10.65 23.97,15.98 0,0 0,0 0,0 l 0.27,0.34 c 0,0 0,0 0,0 15.48,8.13 30.94,16.24 46.44,24.37 0,0 0.01,0 0.02,0 51.69,29.72 85.92,74.17 108.49,128.46 0,-0.03 0,-0.05 0,-0.07 -3.52,-69.51 -44.87,-115.36 -97.12,-154.01 -9.41,-6.95 -18.96,-11.45 -22.82,-24.84 -7.08,-24.45 -26.43,-37.68 -56.15,-47.5 14.46,22.86 7.38,40.34 -3.13,57.22 0,0 0,0 0,0 0,0 0,0 0,0 z"
         id="path12"
         style="fill:#d31e33" />
      <path
         class="cls-10"
         d="m 755.34,102.29 c -14.01,17.21 -35.95,0.2 -57.2,16.41 37.37,8.63 69.71,14.68 103.67,7.98 0,0 -0.01,0 -0.02,0 -15.5,-8.13 -30.96,-16.24 -46.44,-24.37 0,0 0,0 0,0 z"
         id="path13"
         style="fill:#1697ce" />
    </g>
  </g>
</svg>
